<mxfile host="app.diagrams.net" agent="Mozilla/5.0 (Windows NT 10.0; Win64; x64) AppleWebKit/537.36 (KHTML, like Gecko) Chrome/122.0.0.0 Safari/537.36" version="27.1.6">
  <diagram name="第 1 页" id="GTOFGIBE3-t7ZsyqFkgm">
    <mxGraphModel dx="5153" dy="2628" grid="0" gridSize="10" guides="1" tooltips="1" connect="1" arrows="1" fold="1" page="0" pageScale="1" pageWidth="827" pageHeight="1169" math="0" shadow="0">
      <root>
        <mxCell id="0" />
        <mxCell id="1" parent="0" />
        <mxCell id="btKsGY-on5lW7rAerDpI-112" value="" style="rounded=0;whiteSpace=wrap;html=1;fontFamily=Architects Daughter;fontSource=https%3A%2F%2Ffonts.googleapis.com%2Fcss%3Ffamily%3DArchitects%2BDaughter;" parent="1" vertex="1">
          <mxGeometry x="-1640" y="370" width="218" height="316" as="geometry" />
        </mxCell>
        <mxCell id="btKsGY-on5lW7rAerDpI-111" value="" style="rounded=0;whiteSpace=wrap;html=1;fontFamily=Architects Daughter;fontSource=https%3A%2F%2Ffonts.googleapis.com%2Fcss%3Ffamily%3DArchitects%2BDaughter;" parent="1" vertex="1">
          <mxGeometry x="-1332" y="369" width="891" height="325" as="geometry" />
        </mxCell>
        <mxCell id="btKsGY-on5lW7rAerDpI-1" value="用户表" style="whiteSpace=wrap;html=1;align=center;fontFamily=Architects Daughter;fontSource=https%3A%2F%2Ffonts.googleapis.com%2Fcss%3Ffamily%3DArchitects%2BDaughter;" parent="1" vertex="1">
          <mxGeometry x="-594" y="-158" width="100" height="40" as="geometry" />
        </mxCell>
        <mxCell id="btKsGY-on5lW7rAerDpI-5" value="社团活动表" style="whiteSpace=wrap;html=1;align=center;fontFamily=Architects Daughter;fontSource=https%3A%2F%2Ffonts.googleapis.com%2Fcss%3Ffamily%3DArchitects%2BDaughter;" parent="1" vertex="1">
          <mxGeometry x="309" y="19" width="100" height="40" as="geometry" />
        </mxCell>
        <mxCell id="btKsGY-on5lW7rAerDpI-9" value="社团表" style="whiteSpace=wrap;html=1;align=center;fontFamily=Architects Daughter;fontSource=https%3A%2F%2Ffonts.googleapis.com%2Fcss%3Ffamily%3DArchitects%2BDaughter;" parent="1" vertex="1">
          <mxGeometry x="309" y="-158" width="100" height="40" as="geometry" />
        </mxCell>
        <mxCell id="btKsGY-on5lW7rAerDpI-30" value="拥有" style="shape=rhombus;perimeter=rhombusPerimeter;whiteSpace=wrap;html=1;align=center;fontFamily=Architects Daughter;fontSource=https%3A%2F%2Ffonts.googleapis.com%2Fcss%3Ffamily%3DArchitects%2BDaughter;" parent="1" vertex="1">
          <mxGeometry x="29.5" y="-412" width="120" height="60" as="geometry" />
        </mxCell>
        <mxCell id="btKsGY-on5lW7rAerDpI-31" value="" style="endArrow=none;html=1;rounded=0;fontFamily=Architects Daughter;fontSource=https%3A%2F%2Ffonts.googleapis.com%2Fcss%3Ffamily%3DArchitects%2BDaughter;fontSize=16;startSize=14;endSize=14;sourcePerimeterSpacing=8;targetPerimeterSpacing=8;curved=1;entryX=1;entryY=1;entryDx=0;entryDy=0;exitX=0.5;exitY=0;exitDx=0;exitDy=0;" parent="1" source="btKsGY-on5lW7rAerDpI-73" target="btKsGY-on5lW7rAerDpI-30" edge="1">
          <mxGeometry width="50" height="50" relative="1" as="geometry">
            <mxPoint x="-122.5" y="-277" as="sourcePoint" />
            <mxPoint x="118.5" y="-406" as="targetPoint" />
          </mxGeometry>
        </mxCell>
        <mxCell id="btKsGY-on5lW7rAerDpI-33" value="&lt;span style=&quot;font-size:12.0pt;mso-bidi-font-size:&lt;br/&gt;11.0pt;font-family:&amp;quot;Times New Roman&amp;quot;,serif;mso-fareast-font-family:宋体;&lt;br/&gt;mso-bidi-theme-font:minor-bidi;mso-font-kerning:1.0pt;mso-ansi-language:EN-US;&lt;br/&gt;mso-fareast-language:ZH-CN;mso-bidi-language:AR-SA&quot; lang=&quot;EN-US&quot;&gt;1&lt;/span&gt;" style="edgeLabel;html=1;align=center;verticalAlign=middle;resizable=0;points=[];fontSize=16;fontFamily=Architects Daughter;fontSource=https%3A%2F%2Ffonts.googleapis.com%2Fcss%3Ffamily%3DArchitects%2BDaughter;" parent="btKsGY-on5lW7rAerDpI-31" vertex="1" connectable="0">
          <mxGeometry x="0.2593" y="1" relative="1" as="geometry">
            <mxPoint x="5" y="1" as="offset" />
          </mxGeometry>
        </mxCell>
        <mxCell id="btKsGY-on5lW7rAerDpI-32" value="" style="endArrow=none;html=1;rounded=0;fontFamily=Architects Daughter;fontSource=https%3A%2F%2Ffonts.googleapis.com%2Fcss%3Ffamily%3DArchitects%2BDaughter;fontSize=16;startSize=14;endSize=14;sourcePerimeterSpacing=8;targetPerimeterSpacing=8;curved=1;entryX=0.5;entryY=0;entryDx=0;entryDy=0;exitX=0;exitY=1;exitDx=0;exitDy=0;" parent="1" source="btKsGY-on5lW7rAerDpI-30" target="btKsGY-on5lW7rAerDpI-74" edge="1">
          <mxGeometry width="50" height="50" relative="1" as="geometry">
            <mxPoint x="31.5" y="-220" as="sourcePoint" />
            <mxPoint x="90.5" y="-220" as="targetPoint" />
          </mxGeometry>
        </mxCell>
        <mxCell id="btKsGY-on5lW7rAerDpI-34" value="&lt;span style=&quot;font-size:12.0pt;mso-bidi-font-size:&lt;br/&gt;11.0pt;font-family:&amp;quot;Times New Roman&amp;quot;,serif;mso-fareast-font-family:宋体;&lt;br/&gt;mso-bidi-theme-font:minor-bidi;mso-font-kerning:1.0pt;mso-ansi-language:EN-US;&lt;br/&gt;mso-fareast-language:ZH-CN;mso-bidi-language:AR-SA&quot; lang=&quot;EN-US&quot;&gt;n&lt;/span&gt;" style="edgeLabel;html=1;align=center;verticalAlign=middle;resizable=0;points=[];fontSize=16;fontFamily=Architects Daughter;fontSource=https%3A%2F%2Ffonts.googleapis.com%2Fcss%3Ffamily%3DArchitects%2BDaughter;" parent="btKsGY-on5lW7rAerDpI-32" vertex="1" connectable="0">
          <mxGeometry x="-0.0395" y="-1" relative="1" as="geometry">
            <mxPoint x="1" y="-1" as="offset" />
          </mxGeometry>
        </mxCell>
        <mxCell id="btKsGY-on5lW7rAerDpI-35" value="活动报名" style="shape=rhombus;perimeter=rhombusPerimeter;whiteSpace=wrap;html=1;align=center;fontFamily=Architects Daughter;fontSource=https%3A%2F%2Ffonts.googleapis.com%2Fcss%3Ffamily%3DArchitects%2BDaughter;" parent="1" vertex="1">
          <mxGeometry x="18" y="9" width="120" height="60" as="geometry" />
        </mxCell>
        <mxCell id="btKsGY-on5lW7rAerDpI-47" value="拥有" style="shape=rhombus;perimeter=rhombusPerimeter;whiteSpace=wrap;html=1;align=center;fontFamily=Architects Daughter;fontSource=https%3A%2F%2Ffonts.googleapis.com%2Fcss%3Ffamily%3DArchitects%2BDaughter;" parent="1" vertex="1">
          <mxGeometry x="299" y="-79" width="120" height="60" as="geometry" />
        </mxCell>
        <mxCell id="btKsGY-on5lW7rAerDpI-48" value="" style="endArrow=none;html=1;rounded=0;fontFamily=Architects Daughter;fontSource=https%3A%2F%2Ffonts.googleapis.com%2Fcss%3Ffamily%3DArchitects%2BDaughter;fontSize=16;startSize=14;endSize=14;sourcePerimeterSpacing=8;targetPerimeterSpacing=8;curved=1;entryX=0.5;entryY=1;entryDx=0;entryDy=0;exitX=0.5;exitY=0;exitDx=0;exitDy=0;" parent="1" source="btKsGY-on5lW7rAerDpI-47" target="btKsGY-on5lW7rAerDpI-9" edge="1">
          <mxGeometry width="50" height="50" relative="1" as="geometry">
            <mxPoint x="135" y="-30" as="sourcePoint" />
            <mxPoint x="185" y="-80" as="targetPoint" />
          </mxGeometry>
        </mxCell>
        <mxCell id="btKsGY-on5lW7rAerDpI-51" value="&lt;span style=&quot;font-size:12.0pt;mso-bidi-font-size:&lt;br/&gt;11.0pt;font-family:&amp;quot;Times New Roman&amp;quot;,serif;mso-fareast-font-family:宋体;&lt;br/&gt;mso-bidi-theme-font:minor-bidi;mso-font-kerning:1.0pt;mso-ansi-language:EN-US;&lt;br/&gt;mso-fareast-language:ZH-CN;mso-bidi-language:AR-SA&quot; lang=&quot;EN-US&quot;&gt;1&lt;/span&gt;" style="edgeLabel;html=1;align=center;verticalAlign=middle;resizable=0;points=[];fontSize=16;fontFamily=Architects Daughter;fontSource=https%3A%2F%2Ffonts.googleapis.com%2Fcss%3Ffamily%3DArchitects%2BDaughter;" parent="btKsGY-on5lW7rAerDpI-48" vertex="1" connectable="0">
          <mxGeometry x="0.1344" y="-2" relative="1" as="geometry">
            <mxPoint x="-2" as="offset" />
          </mxGeometry>
        </mxCell>
        <mxCell id="btKsGY-on5lW7rAerDpI-49" value="" style="endArrow=none;html=1;rounded=0;fontFamily=Architects Daughter;fontSource=https%3A%2F%2Ffonts.googleapis.com%2Fcss%3Ffamily%3DArchitects%2BDaughter;fontSize=16;startSize=14;endSize=14;sourcePerimeterSpacing=8;targetPerimeterSpacing=8;curved=1;entryX=0.5;entryY=1;entryDx=0;entryDy=0;exitX=0.5;exitY=0;exitDx=0;exitDy=0;" parent="1" source="btKsGY-on5lW7rAerDpI-5" target="btKsGY-on5lW7rAerDpI-47" edge="1">
          <mxGeometry width="50" height="50" relative="1" as="geometry">
            <mxPoint x="117" y="-51" as="sourcePoint" />
            <mxPoint x="167" y="-101" as="targetPoint" />
          </mxGeometry>
        </mxCell>
        <mxCell id="btKsGY-on5lW7rAerDpI-50" value="&lt;span style=&quot;font-size:12.0pt;mso-bidi-font-size:&lt;br/&gt;11.0pt;font-family:&amp;quot;Times New Roman&amp;quot;,serif;mso-fareast-font-family:宋体;&lt;br/&gt;mso-bidi-theme-font:minor-bidi;mso-font-kerning:1.0pt;mso-ansi-language:EN-US;&lt;br/&gt;mso-fareast-language:ZH-CN;mso-bidi-language:AR-SA&quot; lang=&quot;EN-US&quot;&gt;n&lt;/span&gt;" style="edgeLabel;html=1;align=center;verticalAlign=middle;resizable=0;points=[];fontSize=16;fontFamily=Architects Daughter;fontSource=https%3A%2F%2Ffonts.googleapis.com%2Fcss%3Ffamily%3DArchitects%2BDaughter;" parent="btKsGY-on5lW7rAerDpI-49" vertex="1" connectable="0">
          <mxGeometry x="0.0589" relative="1" as="geometry">
            <mxPoint as="offset" />
          </mxGeometry>
        </mxCell>
        <mxCell id="btKsGY-on5lW7rAerDpI-53" value="活动场地分配表" style="whiteSpace=wrap;html=1;align=center;fontFamily=Architects Daughter;fontSource=https%3A%2F%2Ffonts.googleapis.com%2Fcss%3Ffamily%3DArchitects%2BDaughter;" parent="1" vertex="1">
          <mxGeometry x="634" y="19" width="100" height="40" as="geometry" />
        </mxCell>
        <mxCell id="btKsGY-on5lW7rAerDpI-54" value="" style="endArrow=none;html=1;rounded=0;fontFamily=Architects Daughter;fontSource=https%3A%2F%2Ffonts.googleapis.com%2Fcss%3Ffamily%3DArchitects%2BDaughter;fontSize=16;startSize=14;endSize=14;sourcePerimeterSpacing=8;targetPerimeterSpacing=8;curved=1;entryX=0.5;entryY=1;entryDx=0;entryDy=0;exitX=0;exitY=0.5;exitDx=0;exitDy=0;" parent="1" source="btKsGY-on5lW7rAerDpI-35" target="btKsGY-on5lW7rAerDpI-1" edge="1">
          <mxGeometry width="50" height="50" relative="1" as="geometry">
            <mxPoint x="-79" y="194" as="sourcePoint" />
            <mxPoint x="-29" y="144" as="targetPoint" />
          </mxGeometry>
        </mxCell>
        <mxCell id="btKsGY-on5lW7rAerDpI-56" value="" style="endArrow=none;html=1;rounded=0;fontFamily=Architects Daughter;fontSource=https%3A%2F%2Ffonts.googleapis.com%2Fcss%3Ffamily%3DArchitects%2BDaughter;fontSize=16;startSize=14;endSize=14;sourcePerimeterSpacing=8;targetPerimeterSpacing=8;curved=1;entryX=0;entryY=0.5;entryDx=0;entryDy=0;exitX=1;exitY=0.5;exitDx=0;exitDy=0;" parent="1" source="btKsGY-on5lW7rAerDpI-1" target="btKsGY-on5lW7rAerDpI-57" edge="1">
          <mxGeometry width="50" height="50" relative="1" as="geometry">
            <mxPoint x="-138" y="-75.99999999999989" as="sourcePoint" />
            <mxPoint x="285.9999999999998" y="-75.99999999999989" as="targetPoint" />
          </mxGeometry>
        </mxCell>
        <mxCell id="btKsGY-on5lW7rAerDpI-59" value="&lt;span style=&quot;font-size:12.0pt;mso-bidi-font-size:&lt;br/&gt;11.0pt;font-family:&amp;quot;Times New Roman&amp;quot;,serif;mso-fareast-font-family:宋体;&lt;br/&gt;mso-bidi-theme-font:minor-bidi;mso-font-kerning:1.0pt;mso-ansi-language:EN-US;&lt;br/&gt;mso-fareast-language:ZH-CN;mso-bidi-language:AR-SA&quot; lang=&quot;EN-US&quot;&gt;1&lt;/span&gt;" style="edgeLabel;html=1;align=center;verticalAlign=middle;resizable=0;points=[];fontSize=16;fontFamily=Architects Daughter;fontSource=https%3A%2F%2Ffonts.googleapis.com%2Fcss%3Ffamily%3DArchitects%2BDaughter;" parent="btKsGY-on5lW7rAerDpI-56" vertex="1" connectable="0">
          <mxGeometry x="-0.0763" relative="1" as="geometry">
            <mxPoint as="offset" />
          </mxGeometry>
        </mxCell>
        <mxCell id="btKsGY-on5lW7rAerDpI-57" value="管理" style="shape=rhombus;perimeter=rhombusPerimeter;whiteSpace=wrap;html=1;align=center;fontFamily=Architects Daughter;fontSource=https%3A%2F%2Ffonts.googleapis.com%2Fcss%3Ffamily%3DArchitects%2BDaughter;" parent="1" vertex="1">
          <mxGeometry x="33.99999999999977" y="-167.99999999999977" width="120" height="60" as="geometry" />
        </mxCell>
        <mxCell id="btKsGY-on5lW7rAerDpI-58" value="" style="endArrow=none;html=1;rounded=0;fontFamily=Architects Daughter;fontSource=https%3A%2F%2Ffonts.googleapis.com%2Fcss%3Ffamily%3DArchitects%2BDaughter;fontSize=16;startSize=14;endSize=14;sourcePerimeterSpacing=8;targetPerimeterSpacing=8;curved=1;entryX=0;entryY=0.5;entryDx=0;entryDy=0;exitX=1;exitY=0.5;exitDx=0;exitDy=0;" parent="1" source="btKsGY-on5lW7rAerDpI-57" target="btKsGY-on5lW7rAerDpI-9" edge="1">
          <mxGeometry relative="1" as="geometry">
            <mxPoint x="-38" y="-63" as="sourcePoint" />
            <mxPoint x="122" y="-63" as="targetPoint" />
          </mxGeometry>
        </mxCell>
        <mxCell id="btKsGY-on5lW7rAerDpI-60" value="&lt;span style=&quot;font-size:12.0pt;mso-bidi-font-size:&lt;br/&gt;11.0pt;font-family:&amp;quot;Times New Roman&amp;quot;,serif;mso-fareast-font-family:宋体;&lt;br/&gt;mso-bidi-theme-font:minor-bidi;mso-font-kerning:1.0pt;mso-ansi-language:EN-US;&lt;br/&gt;mso-fareast-language:ZH-CN;mso-bidi-language:AR-SA&quot; lang=&quot;EN-US&quot;&gt;n&lt;/span&gt;" style="edgeLabel;html=1;align=center;verticalAlign=middle;resizable=0;points=[];fontSize=16;fontFamily=Architects Daughter;fontSource=https%3A%2F%2Ffonts.googleapis.com%2Fcss%3Ffamily%3DArchitects%2BDaughter;" parent="btKsGY-on5lW7rAerDpI-58" vertex="1" connectable="0">
          <mxGeometry x="-0.1812" y="-3" relative="1" as="geometry">
            <mxPoint y="-5" as="offset" />
          </mxGeometry>
        </mxCell>
        <mxCell id="btKsGY-on5lW7rAerDpI-61" value="拥有" style="shape=rhombus;perimeter=rhombusPerimeter;whiteSpace=wrap;html=1;align=center;fontFamily=Architects Daughter;fontSource=https%3A%2F%2Ffonts.googleapis.com%2Fcss%3Ffamily%3DArchitects%2BDaughter;" parent="1" vertex="1">
          <mxGeometry x="464" y="9" width="120" height="60" as="geometry" />
        </mxCell>
        <mxCell id="btKsGY-on5lW7rAerDpI-62" value="" style="endArrow=none;html=1;rounded=0;fontFamily=Architects Daughter;fontSource=https%3A%2F%2Ffonts.googleapis.com%2Fcss%3Ffamily%3DArchitects%2BDaughter;fontSize=16;startSize=14;endSize=14;sourcePerimeterSpacing=8;targetPerimeterSpacing=8;curved=1;entryX=0;entryY=0.5;entryDx=0;entryDy=0;exitX=1;exitY=0.5;exitDx=0;exitDy=0;" parent="1" source="btKsGY-on5lW7rAerDpI-5" target="btKsGY-on5lW7rAerDpI-61" edge="1">
          <mxGeometry width="50" height="50" relative="1" as="geometry">
            <mxPoint x="199" y="89.9" as="sourcePoint" />
            <mxPoint x="458.15999999999985" y="42.99999999999991" as="targetPoint" />
          </mxGeometry>
        </mxCell>
        <mxCell id="btKsGY-on5lW7rAerDpI-67" value="&lt;span style=&quot;font-size:12.0pt;mso-bidi-font-size:&lt;br/&gt;11.0pt;font-family:&amp;quot;Times New Roman&amp;quot;,serif;mso-fareast-font-family:宋体;&lt;br/&gt;mso-bidi-theme-font:minor-bidi;mso-font-kerning:1.0pt;mso-ansi-language:EN-US;&lt;br/&gt;mso-fareast-language:ZH-CN;mso-bidi-language:AR-SA&quot; lang=&quot;EN-US&quot;&gt;1&lt;/span&gt;" style="edgeLabel;html=1;align=center;verticalAlign=middle;resizable=0;points=[];fontSize=16;fontFamily=Architects Daughter;fontSource=https%3A%2F%2Ffonts.googleapis.com%2Fcss%3Ffamily%3DArchitects%2BDaughter;" parent="btKsGY-on5lW7rAerDpI-62" vertex="1" connectable="0">
          <mxGeometry x="-0.2959" y="1" relative="1" as="geometry">
            <mxPoint x="10" y="1" as="offset" />
          </mxGeometry>
        </mxCell>
        <mxCell id="btKsGY-on5lW7rAerDpI-63" value="" style="endArrow=none;html=1;rounded=0;fontFamily=Architects Daughter;fontSource=https%3A%2F%2Ffonts.googleapis.com%2Fcss%3Ffamily%3DArchitects%2BDaughter;fontSize=16;startSize=14;endSize=14;sourcePerimeterSpacing=8;targetPerimeterSpacing=8;curved=1;entryX=0;entryY=0.5;entryDx=0;entryDy=0;exitX=1;exitY=0.5;exitDx=0;exitDy=0;" parent="1" source="btKsGY-on5lW7rAerDpI-61" target="btKsGY-on5lW7rAerDpI-53" edge="1">
          <mxGeometry width="50" height="50" relative="1" as="geometry">
            <mxPoint x="453" y="125" as="sourcePoint" />
            <mxPoint x="503" y="75" as="targetPoint" />
          </mxGeometry>
        </mxCell>
        <mxCell id="btKsGY-on5lW7rAerDpI-65" value="&lt;span style=&quot;font-size:12.0pt;mso-bidi-font-size:&lt;br/&gt;11.0pt;font-family:&amp;quot;Times New Roman&amp;quot;,serif;mso-fareast-font-family:宋体;&lt;br/&gt;mso-bidi-theme-font:minor-bidi;mso-font-kerning:1.0pt;mso-ansi-language:EN-US;&lt;br/&gt;mso-fareast-language:ZH-CN;mso-bidi-language:AR-SA&quot; lang=&quot;EN-US&quot;&gt;n&lt;/span&gt;" style="edgeLabel;html=1;align=center;verticalAlign=middle;resizable=0;points=[];fontSize=16;fontFamily=Architects Daughter;fontSource=https%3A%2F%2Ffonts.googleapis.com%2Fcss%3Ffamily%3DArchitects%2BDaughter;" parent="btKsGY-on5lW7rAerDpI-63" vertex="1" connectable="0">
          <mxGeometry x="-0.0497" y="1" relative="1" as="geometry">
            <mxPoint y="1" as="offset" />
          </mxGeometry>
        </mxCell>
        <mxCell id="btKsGY-on5lW7rAerDpI-68" value="" style="endArrow=none;html=1;rounded=0;fontFamily=Architects Daughter;fontSource=https%3A%2F%2Ffonts.googleapis.com%2Fcss%3Ffamily%3DArchitects%2BDaughter;fontSize=16;startSize=14;endSize=14;sourcePerimeterSpacing=8;targetPerimeterSpacing=8;curved=1;entryX=0;entryY=0.5;entryDx=0;entryDy=0;exitX=1;exitY=0.5;exitDx=0;exitDy=0;" parent="1" source="btKsGY-on5lW7rAerDpI-35" target="btKsGY-on5lW7rAerDpI-5" edge="1">
          <mxGeometry width="50" height="50" relative="1" as="geometry">
            <mxPoint x="-8" y="78" as="sourcePoint" />
            <mxPoint x="42" y="28" as="targetPoint" />
          </mxGeometry>
        </mxCell>
        <mxCell id="btKsGY-on5lW7rAerDpI-73" value="学院表" style="whiteSpace=wrap;html=1;align=center;fontFamily=Architects Daughter;fontSource=https%3A%2F%2Ffonts.googleapis.com%2Fcss%3Ffamily%3DArchitects%2BDaughter;" parent="1" vertex="1">
          <mxGeometry x="145.5" y="-325" width="100" height="40" as="geometry" />
        </mxCell>
        <mxCell id="btKsGY-on5lW7rAerDpI-74" value="专业表" style="whiteSpace=wrap;html=1;align=center;fontFamily=Architects Daughter;fontSource=https%3A%2F%2Ffonts.googleapis.com%2Fcss%3Ffamily%3DArchitects%2BDaughter;" parent="1" vertex="1">
          <mxGeometry x="-57.5" y="-325" width="100" height="40" as="geometry" />
        </mxCell>
        <mxCell id="btKsGY-on5lW7rAerDpI-76" value="公告表" style="whiteSpace=wrap;html=1;align=center;fontFamily=Architects Daughter;fontSource=https%3A%2F%2Ffonts.googleapis.com%2Fcss%3Ffamily%3DArchitects%2BDaughter;" parent="1" vertex="1">
          <mxGeometry x="-215" y="-376" width="100" height="40" as="geometry" />
        </mxCell>
        <mxCell id="btKsGY-on5lW7rAerDpI-77" value="管理" style="shape=rhombus;perimeter=rhombusPerimeter;whiteSpace=wrap;html=1;align=center;fontFamily=Architects Daughter;fontSource=https%3A%2F%2Ffonts.googleapis.com%2Fcss%3Ffamily%3DArchitects%2BDaughter;" parent="1" vertex="1">
          <mxGeometry x="-225.00000000000023" y="-275.9999999999998" width="120" height="60" as="geometry" />
        </mxCell>
        <mxCell id="btKsGY-on5lW7rAerDpI-78" value="" style="endArrow=none;html=1;rounded=0;fontFamily=Architects Daughter;fontSource=https%3A%2F%2Ffonts.googleapis.com%2Fcss%3Ffamily%3DArchitects%2BDaughter;fontSize=16;startSize=14;endSize=14;sourcePerimeterSpacing=8;targetPerimeterSpacing=8;curved=1;entryX=0.5;entryY=1;entryDx=0;entryDy=0;exitX=0.5;exitY=0;exitDx=0;exitDy=0;" parent="1" source="btKsGY-on5lW7rAerDpI-1" edge="1">
          <mxGeometry width="50" height="50" relative="1" as="geometry">
            <mxPoint x="-484" y="-19" as="sourcePoint" />
            <mxPoint x="-544" y="-216" as="targetPoint" />
          </mxGeometry>
        </mxCell>
        <mxCell id="btKsGY-on5lW7rAerDpI-79" value="" style="endArrow=none;html=1;rounded=0;fontFamily=Architects Daughter;fontSource=https%3A%2F%2Ffonts.googleapis.com%2Fcss%3Ffamily%3DArchitects%2BDaughter;fontSize=16;startSize=14;endSize=14;sourcePerimeterSpacing=8;targetPerimeterSpacing=8;curved=1;entryX=0.5;entryY=1;entryDx=0;entryDy=0;exitX=0.5;exitY=0;exitDx=0;exitDy=0;" parent="1" source="btKsGY-on5lW7rAerDpI-77" target="btKsGY-on5lW7rAerDpI-76" edge="1">
          <mxGeometry width="50" height="50" relative="1" as="geometry">
            <mxPoint x="-165" y="-277" as="sourcePoint" />
            <mxPoint x="-84" y="-320" as="targetPoint" />
          </mxGeometry>
        </mxCell>
        <mxCell id="btKsGY-on5lW7rAerDpI-80" value="隶属" style="shape=rhombus;perimeter=rhombusPerimeter;whiteSpace=wrap;html=1;align=center;fontFamily=Architects Daughter;fontSource=https%3A%2F%2Ffonts.googleapis.com%2Fcss%3Ffamily%3DArchitects%2BDaughter;" parent="1" vertex="1">
          <mxGeometry x="227" y="-251" width="120" height="60" as="geometry" />
        </mxCell>
        <mxCell id="btKsGY-on5lW7rAerDpI-81" value="隶属" style="shape=rhombus;perimeter=rhombusPerimeter;whiteSpace=wrap;html=1;align=center;fontFamily=Architects Daughter;fontSource=https%3A%2F%2Ffonts.googleapis.com%2Fcss%3Ffamily%3DArchitects%2BDaughter;" parent="1" vertex="1">
          <mxGeometry x="-67.5" y="-239" width="120" height="60" as="geometry" />
        </mxCell>
        <mxCell id="btKsGY-on5lW7rAerDpI-82" value="" style="endArrow=none;html=1;rounded=0;fontFamily=Architects Daughter;fontSource=https%3A%2F%2Ffonts.googleapis.com%2Fcss%3Ffamily%3DArchitects%2BDaughter;fontSize=16;startSize=14;endSize=14;sourcePerimeterSpacing=8;targetPerimeterSpacing=8;curved=1;exitX=1;exitY=0;exitDx=0;exitDy=0;entryX=0;entryY=1;entryDx=0;entryDy=0;" parent="1" source="btKsGY-on5lW7rAerDpI-1" edge="1">
          <mxGeometry width="50" height="50" relative="1" as="geometry">
            <mxPoint x="-497" y="-176" as="sourcePoint" />
            <mxPoint x="-416.5" y="-194" as="targetPoint" />
          </mxGeometry>
        </mxCell>
        <mxCell id="btKsGY-on5lW7rAerDpI-83" value="" style="endArrow=none;html=1;rounded=0;fontFamily=Architects Daughter;fontSource=https%3A%2F%2Ffonts.googleapis.com%2Fcss%3Ffamily%3DArchitects%2BDaughter;fontSize=16;startSize=14;endSize=14;sourcePerimeterSpacing=8;targetPerimeterSpacing=8;curved=1;entryX=0.5;entryY=1;entryDx=0;entryDy=0;exitX=0.5;exitY=0;exitDx=0;exitDy=0;" parent="1" source="btKsGY-on5lW7rAerDpI-81" target="btKsGY-on5lW7rAerDpI-74" edge="1">
          <mxGeometry width="50" height="50" relative="1" as="geometry">
            <mxPoint x="-117" y="-208" as="sourcePoint" />
            <mxPoint x="-67" y="-258" as="targetPoint" />
          </mxGeometry>
        </mxCell>
        <mxCell id="btKsGY-on5lW7rAerDpI-84" value="" style="endArrow=none;html=1;rounded=0;fontFamily=Architects Daughter;fontSource=https%3A%2F%2Ffonts.googleapis.com%2Fcss%3Ffamily%3DArchitects%2BDaughter;fontSize=16;startSize=14;endSize=14;sourcePerimeterSpacing=8;targetPerimeterSpacing=8;curved=1;entryX=0.5;entryY=1;entryDx=0;entryDy=0;exitX=1;exitY=0;exitDx=0;exitDy=0;" parent="1" source="btKsGY-on5lW7rAerDpI-81" target="btKsGY-on5lW7rAerDpI-73" edge="1">
          <mxGeometry width="50" height="50" relative="1" as="geometry">
            <mxPoint x="-117" y="-208" as="sourcePoint" />
            <mxPoint x="-67" y="-258" as="targetPoint" />
          </mxGeometry>
        </mxCell>
        <mxCell id="btKsGY-on5lW7rAerDpI-85" value="" style="endArrow=none;html=1;rounded=0;fontFamily=Architects Daughter;fontSource=https%3A%2F%2Ffonts.googleapis.com%2Fcss%3Ffamily%3DArchitects%2BDaughter;fontSize=16;startSize=14;endSize=14;sourcePerimeterSpacing=8;targetPerimeterSpacing=8;curved=1;entryX=0.5;entryY=1;entryDx=0;entryDy=0;exitX=0;exitY=0;exitDx=0;exitDy=0;" parent="1" source="btKsGY-on5lW7rAerDpI-80" target="btKsGY-on5lW7rAerDpI-73" edge="1">
          <mxGeometry width="50" height="50" relative="1" as="geometry">
            <mxPoint x="-109" y="-197" as="sourcePoint" />
            <mxPoint x="-59" y="-247" as="targetPoint" />
          </mxGeometry>
        </mxCell>
        <mxCell id="btKsGY-on5lW7rAerDpI-86" value="&lt;p style=&quot;font-family: Helvetica; text-align: left; line-height: 20pt;&quot; align=&quot;left&quot; class=&quot;MsoNormal&quot;&gt;&lt;b&gt;&lt;font face=&quot;Comic Sans MS&quot;&gt;&lt;span style=&quot;font-size: 12pt;&quot; lang=&quot;EN-US&quot;&gt;（1&lt;/span&gt;&lt;span style=&quot;font-size: 12pt;&quot;&gt;）为学校管理员、社团组织者、学生提供注册，登录功能，并设置其访问权限。&lt;/span&gt;&lt;/font&gt;&lt;/b&gt;&lt;/p&gt;&lt;p style=&quot;font-family: Helvetica; text-align: left; line-height: 20pt;&quot; align=&quot;left&quot; class=&quot;MsoNormal&quot;&gt;&lt;b&gt;&lt;font face=&quot;Comic Sans MS&quot;&gt;&lt;span style=&quot;background-color: transparent; color: light-dark(rgb(0, 0, 0), rgb(255, 255, 255)); font-size: 12pt;&quot;&gt;（&lt;/span&gt;&lt;span style=&quot;background-color: transparent; color: light-dark(rgb(0, 0, 0), rgb(255, 255, 255)); font-size: 12pt;&quot; lang=&quot;EN-US&quot;&gt;2&lt;/span&gt;&lt;span style=&quot;background-color: transparent; color: light-dark(rgb(0, 0, 0), rgb(255, 255, 255)); font-size: 12pt;&quot;&gt;）学校管理员：审核和管理社团活动、分配活动场地，管理学生访问信息记录，公告信息管理等。&lt;/span&gt;&lt;/font&gt;&lt;/b&gt;&lt;/p&gt;&lt;p style=&quot;font-family: Helvetica; text-align: left; line-height: 20pt;&quot; align=&quot;left&quot; class=&quot;MsoNormal&quot;&gt;&lt;b&gt;&lt;font face=&quot;Comic Sans MS&quot;&gt;&lt;span style=&quot;background-color: transparent; color: light-dark(rgb(0, 0, 0), rgb(255, 255, 255)); font-size: 12pt;&quot;&gt;（&lt;/span&gt;&lt;span style=&quot;background-color: transparent; color: light-dark(rgb(0, 0, 0), rgb(255, 255, 255)); font-size: 12pt;&quot; lang=&quot;EN-US&quot;&gt;3&lt;/span&gt;&lt;span style=&quot;background-color: transparent; color: light-dark(rgb(0, 0, 0), rgb(255, 255, 255)); font-size: 12pt;&quot;&gt;）社团组织者：提交社团活动申请、申请活动场地、发布活动信息，审批学生活动申请等。&lt;/span&gt;&lt;/font&gt;&lt;/b&gt;&lt;/p&gt;&lt;p style=&quot;font-family: Helvetica; text-align: left; line-height: 20pt;&quot; align=&quot;left&quot; class=&quot;MsoNormal&quot;&gt;&lt;b&gt;&lt;font face=&quot;Comic Sans MS&quot;&gt;&lt;span style=&quot;background-color: transparent; color: light-dark(rgb(0, 0, 0), rgb(255, 255, 255)); text-align: center; font-size: 12pt;&quot;&gt;（&lt;/span&gt;&lt;span style=&quot;background-color: transparent; color: light-dark(rgb(0, 0, 0), rgb(255, 255, 255)); text-align: center; font-size: 12pt;&quot; lang=&quot;EN-US&quot;&gt;4&lt;/span&gt;&lt;span style=&quot;background-color: transparent; color: light-dark(rgb(0, 0, 0), rgb(255, 255, 255)); text-align: center; font-size: 12pt;&quot;&gt;）学生：查询修改个人信息，在线报名、申请、取消活动，查询活动报名结果、参与活动记录等。&lt;/span&gt;&lt;/font&gt;&lt;/b&gt;&lt;/p&gt;" style="shape=note;whiteSpace=wrap;html=1;backgroundOutline=1;fontColor=#000000;darkOpacity=0.05;fillColor=#FFF9B2;strokeColor=none;fillStyle=solid;direction=west;gradientDirection=north;gradientColor=#FFF2A1;shadow=1;size=20;pointerEvents=1;fontFamily=Architects Daughter;fontSource=https%3A%2F%2Ffonts.googleapis.com%2Fcss%3Ffamily%3DArchitects%2BDaughter;" parent="1" vertex="1">
          <mxGeometry x="-1547" y="-51" width="457" height="280" as="geometry" />
        </mxCell>
        <mxCell id="btKsGY-on5lW7rAerDpI-87" value="&lt;h1&gt;高校学生社团活动管理系统&lt;/h1&gt;" style="rounded=0;whiteSpace=wrap;html=1;fontFamily=Architects Daughter;fontSource=https%3A%2F%2Ffonts.googleapis.com%2Fcss%3Ffamily%3DArchitects%2BDaughter;" parent="1" vertex="1">
          <mxGeometry x="-1269" y="269" width="334" height="60" as="geometry" />
        </mxCell>
        <mxCell id="btKsGY-on5lW7rAerDpI-88" value="&lt;h1&gt;用户登陆&lt;/h1&gt;" style="rounded=0;whiteSpace=wrap;html=1;fontFamily=Architects Daughter;fontSource=https%3A%2F%2Ffonts.googleapis.com%2Fcss%3Ffamily%3DArchitects%2BDaughter;" parent="1" vertex="1">
          <mxGeometry x="-1616" y="380" width="44" height="290" as="geometry" />
        </mxCell>
        <mxCell id="btKsGY-on5lW7rAerDpI-91" value="&lt;h1&gt;用户信息管理&lt;/h1&gt;" style="rounded=0;whiteSpace=wrap;html=1;fontFamily=Architects Daughter;fontSource=https%3A%2F%2Ffonts.googleapis.com%2Fcss%3Ffamily%3DArchitects%2BDaughter;fillColor=#ffe6cc;strokeColor=#d79b00;" parent="1" vertex="1">
          <mxGeometry x="-1393" y="383" width="44" height="290" as="geometry" />
        </mxCell>
        <mxCell id="btKsGY-on5lW7rAerDpI-92" value="&lt;h1&gt;社团信息管理&lt;/h1&gt;" style="rounded=0;whiteSpace=wrap;html=1;fontFamily=Architects Daughter;fontSource=https%3A%2F%2Ffonts.googleapis.com%2Fcss%3Ffamily%3DArchitects%2BDaughter;fillColor=#ffe6cc;strokeColor=#d79b00;" parent="1" vertex="1">
          <mxGeometry x="-1273" y="383" width="44" height="290" as="geometry" />
        </mxCell>
        <mxCell id="btKsGY-on5lW7rAerDpI-93" value="&lt;h1&gt;社团活动管理&lt;/h1&gt;" style="rounded=0;whiteSpace=wrap;html=1;fontFamily=Architects Daughter;fontSource=https%3A%2F%2Ffonts.googleapis.com%2Fcss%3Ffamily%3DArchitects%2BDaughter;fillColor=#dae8fc;strokeColor=#6c8ebf;" parent="1" vertex="1">
          <mxGeometry x="-1197" y="383" width="44" height="290" as="geometry" />
        </mxCell>
        <mxCell id="btKsGY-on5lW7rAerDpI-94" value="&lt;h1&gt;公告管理&lt;/h1&gt;" style="rounded=0;whiteSpace=wrap;html=1;fontFamily=Architects Daughter;fontSource=https%3A%2F%2Ffonts.googleapis.com%2Fcss%3Ffamily%3DArchitects%2BDaughter;fillColor=#dae8fc;strokeColor=#6c8ebf;" parent="1" vertex="1">
          <mxGeometry x="-1802" y="380" width="44" height="290" as="geometry" />
        </mxCell>
        <mxCell id="btKsGY-on5lW7rAerDpI-95" value="&lt;h1&gt;日志管理&lt;/h1&gt;" style="rounded=0;whiteSpace=wrap;html=1;fontFamily=Architects Daughter;fontSource=https%3A%2F%2Ffonts.googleapis.com%2Fcss%3Ffamily%3DArchitects%2BDaughter;fillColor=#dae8fc;strokeColor=#6c8ebf;" parent="1" vertex="1">
          <mxGeometry x="-1724" y="380" width="44" height="290" as="geometry" />
        </mxCell>
        <mxCell id="btKsGY-on5lW7rAerDpI-96" value="&lt;h1&gt;活动评论管理&lt;/h1&gt;" style="rounded=0;whiteSpace=wrap;html=1;fontFamily=Architects Daughter;fontSource=https%3A%2F%2Ffonts.googleapis.com%2Fcss%3Ffamily%3DArchitects%2BDaughter;" parent="1" vertex="1">
          <mxGeometry x="-843" y="383" width="44" height="290" as="geometry" />
        </mxCell>
        <mxCell id="btKsGY-on5lW7rAerDpI-97" value="&lt;h1&gt;活动场地管理&lt;/h1&gt;" style="rounded=0;whiteSpace=wrap;html=1;fontFamily=Architects Daughter;fontSource=https%3A%2F%2Ffonts.googleapis.com%2Fcss%3Ffamily%3DArchitects%2BDaughter;" parent="1" vertex="1">
          <mxGeometry x="-770" y="383" width="44" height="290" as="geometry" />
        </mxCell>
        <mxCell id="btKsGY-on5lW7rAerDpI-98" value="&lt;h1&gt;注册&lt;/h1&gt;" style="rounded=0;whiteSpace=wrap;html=1;fontFamily=Architects Daughter;fontSource=https%3A%2F%2Ffonts.googleapis.com%2Fcss%3Ffamily%3DArchitects%2BDaughter;fillColor=#ffe6cc;strokeColor=#d79b00;" parent="1" vertex="1">
          <mxGeometry x="-1561" y="380" width="120" height="60" as="geometry" />
        </mxCell>
        <mxCell id="btKsGY-on5lW7rAerDpI-101" value="&lt;h1&gt;登陆&lt;/h1&gt;" style="rounded=0;whiteSpace=wrap;html=1;fontFamily=Architects Daughter;fontSource=https%3A%2F%2Ffonts.googleapis.com%2Fcss%3Ffamily%3DArchitects%2BDaughter;fillColor=#ffe6cc;strokeColor=#d79b00;" parent="1" vertex="1">
          <mxGeometry x="-1561" y="455" width="120" height="60" as="geometry" />
        </mxCell>
        <mxCell id="btKsGY-on5lW7rAerDpI-102" value="&lt;h1&gt;权限&lt;/h1&gt;" style="rounded=0;whiteSpace=wrap;html=1;fontFamily=Architects Daughter;fontSource=https%3A%2F%2Ffonts.googleapis.com%2Fcss%3Ffamily%3DArchitects%2BDaughter;" parent="1" vertex="1">
          <mxGeometry x="-1561" y="530" width="120" height="60" as="geometry" />
        </mxCell>
        <mxCell id="btKsGY-on5lW7rAerDpI-105" value="&lt;h1&gt;申请&lt;/h1&gt;" style="rounded=0;whiteSpace=wrap;html=1;fontFamily=Architects Daughter;fontSource=https%3A%2F%2Ffonts.googleapis.com%2Fcss%3Ffamily%3DArchitects%2BDaughter;fillColor=#ffe6cc;strokeColor=#d79b00;" parent="1" vertex="1">
          <mxGeometry x="-1128" y="383" width="120" height="60" as="geometry" />
        </mxCell>
        <mxCell id="btKsGY-on5lW7rAerDpI-106" value="&lt;h1&gt;审批&lt;/h1&gt;" style="rounded=0;whiteSpace=wrap;html=1;fontFamily=Architects Daughter;fontSource=https%3A%2F%2Ffonts.googleapis.com%2Fcss%3Ffamily%3DArchitects%2BDaughter;fillColor=#dae8fc;strokeColor=#6c8ebf;" parent="1" vertex="1">
          <mxGeometry x="-1128" y="455" width="120" height="60" as="geometry" />
        </mxCell>
        <mxCell id="btKsGY-on5lW7rAerDpI-107" value="&lt;h1&gt;报名&lt;/h1&gt;" style="rounded=0;whiteSpace=wrap;html=1;fontFamily=Architects Daughter;fontSource=https%3A%2F%2Ffonts.googleapis.com%2Fcss%3Ffamily%3DArchitects%2BDaughter;fillColor=#dae8fc;strokeColor=#6c8ebf;" parent="1" vertex="1">
          <mxGeometry x="-1128" y="528" width="120" height="60" as="geometry" />
        </mxCell>
        <mxCell id="btKsGY-on5lW7rAerDpI-108" value="&lt;h1&gt;发布&lt;/h1&gt;" style="rounded=0;whiteSpace=wrap;html=1;fontFamily=Architects Daughter;fontSource=https%3A%2F%2Ffonts.googleapis.com%2Fcss%3Ffamily%3DArchitects%2BDaughter;fillColor=#ffe6cc;strokeColor=#d79b00;" parent="1" vertex="1">
          <mxGeometry x="-1128" y="605" width="120" height="60" as="geometry" />
        </mxCell>
        <mxCell id="btKsGY-on5lW7rAerDpI-109" value="&lt;h1&gt;申请&lt;/h1&gt;" style="rounded=0;whiteSpace=wrap;html=1;fontFamily=Architects Daughter;fontSource=https%3A%2F%2Ffonts.googleapis.com%2Fcss%3Ffamily%3DArchitects%2BDaughter;fillColor=#ffe6cc;strokeColor=#d79b00;" parent="1" vertex="1">
          <mxGeometry x="-712" y="383" width="120" height="60" as="geometry" />
        </mxCell>
        <mxCell id="btKsGY-on5lW7rAerDpI-110" value="&lt;h1&gt;审批&lt;/h1&gt;" style="rounded=0;whiteSpace=wrap;html=1;fontFamily=Architects Daughter;fontSource=https%3A%2F%2Ffonts.googleapis.com%2Fcss%3Ffamily%3DArchitects%2BDaughter;fillColor=#ffe6cc;strokeColor=#d79b00;" parent="1" vertex="1">
          <mxGeometry x="-712" y="461" width="120" height="60" as="geometry" />
        </mxCell>
        <mxCell id="btKsGY-on5lW7rAerDpI-116" value="用户（id，用户名，密码，权限，头像，创建时间，更新时间）&lt;div&gt;学生（,学生id，学号，姓名，学院，专业，手机号，电子邮箱，所属社团id，用户id，更新时间）&lt;/div&gt;&lt;div&gt;老师（老师id，工号，姓名，学院，专业，手机号，电子邮箱，所属社团id，&lt;span style=&quot;background-color: transparent; color: light-dark(rgb(0, 0, 0), rgb(237, 237, 237));&quot;&gt;用户id，更新时间&lt;/span&gt;&lt;span style=&quot;background-color: transparent; color: light-dark(rgb(0, 0, 0), rgb(237, 237, 237));&quot;&gt;）&lt;/span&gt;&lt;/div&gt;&lt;div&gt;&lt;span style=&quot;background-color: transparent; color: light-dark(rgb(0, 0, 0), rgb(237, 237, 237));&quot;&gt;&lt;br&gt;&lt;/span&gt;&lt;/div&gt;&lt;div&gt;&lt;span style=&quot;background-color: transparent; color: light-dark(rgb(0, 0, 0), rgb(237, 237, 237));&quot;&gt;用户（&lt;/span&gt;&lt;span style=&quot;background-color: transparent; color: light-dark(rgb(0, 0, 0), rgb(237, 237, 237));&quot;&gt;id，&lt;/span&gt;&lt;span style=&quot;background-color: transparent; color: light-dark(rgb(0, 0, 0), rgb(237, 237, 237));&quot;&gt;学号/工号，&lt;/span&gt;&lt;span style=&quot;background-color: transparent; color: light-dark(rgb(0, 0, 0), rgb(237, 237, 237));&quot;&gt;用户名，密码，权限，角色类型，头像url，创建时间，&lt;/span&gt;&lt;span style=&quot;background-color: transparent; color: light-dark(rgb(0, 0, 0), rgb(237, 237, 237));&quot;&gt;姓名，学院，专业，班级，年级，手机号，电子邮箱，所属社团id，更新时间&lt;/span&gt;&lt;span style=&quot;background-color: transparent; color: light-dark(rgb(0, 0, 0), rgb(237, 237, 237));&quot;&gt;）&lt;/span&gt;&lt;/div&gt;&lt;div&gt;&lt;span style=&quot;background-color: transparent; color: light-dark(rgb(0, 0, 0), rgb(237, 237, 237));&quot;&gt;&lt;br&gt;&lt;/span&gt;&lt;/div&gt;&lt;div&gt;班级（班级id，班级名称，专业id，年级id）&lt;/div&gt;&lt;div&gt;年级（年级id，年级）&lt;/div&gt;&lt;div&gt;专业（专业id，专业名称，学院id）&lt;/div&gt;&lt;div&gt;学院（学院id，学院名称）&lt;/div&gt;&lt;div&gt;&lt;br&gt;&lt;/div&gt;&lt;div&gt;社团（社团id，社团名，社团简介，所属学院，上级社团id，指导老师id，创建时间）&lt;/div&gt;&lt;div&gt;社团关系（社团id，学生id，角色名称）&lt;/div&gt;&lt;div&gt;社团活动（活动id，活动名称，所属学院id，活动内容，&lt;span style=&quot;background-color: transparent; color: light-dark(rgb(0, 0, 0), rgb(237, 237, 237));&quot;&gt;活动地点[]，活动开始时间，活动结束时间，申请提交时间，通过时间，&lt;/span&gt;&lt;span style=&quot;background-color: transparent; color: light-dark(rgb(0, 0, 0), rgb(237, 237, 237));&quot;&gt;允许参加范围，状态，报名限制人数，签到ip地址）&lt;/span&gt;&lt;/div&gt;&lt;div&gt;：&lt;span style=&quot;background-color: transparent; color: light-dark(rgb(0, 0, 0), rgb(237, 237, 237));&quot;&gt;签到ip地址（&lt;/span&gt;&lt;span style=&quot;background-color: transparent; color: light-dark(rgb(0, 0, 0), rgb(237, 237, 237));&quot;&gt;无就是不签到）&lt;/span&gt;&lt;/div&gt;&lt;div&gt;：状态（审核中、通过、未通过）&lt;/div&gt;&lt;div&gt;&lt;span style=&quot;background-color: transparent; color: light-dark(rgb(0, 0, 0), rgb(237, 237, 237));&quot;&gt;活动场地（地点id，具体地址，所属活动）&lt;/span&gt;&lt;/div&gt;&lt;div&gt;&lt;span style=&quot;background-color: transparent; color: light-dark(rgb(0, 0, 0), rgb(237, 237, 237));&quot;&gt;&lt;br&gt;&lt;/span&gt;&lt;/div&gt;&lt;div&gt;&lt;span style=&quot;background-color: transparent; color: light-dark(rgb(0, 0, 0), rgb(237, 237, 237));&quot;&gt;活动报名（学生id，活动id，报名时间，状态）&lt;/span&gt;&lt;/div&gt;&lt;div&gt;：状态（审核中、通过、未通过）&lt;/div&gt;&lt;div&gt;&lt;br&gt;&lt;/div&gt;&lt;div&gt;活动评论（1）（评论id，活动id，用户名，评论内容，评论时间）&lt;/div&gt;&lt;div&gt;活动评论（2）（评论id，父级评论id，用户名，@用户名，回复内容，&lt;span style=&quot;background-color: transparent; color: light-dark(rgb(0, 0, 0), rgb(237, 237, 237));&quot;&gt;评论时间&lt;/span&gt;&lt;span style=&quot;background-color: transparent; color: light-dark(rgb(0, 0, 0), rgb(237, 237, 237));&quot;&gt;）&lt;/span&gt;&lt;/div&gt;&lt;div&gt;&lt;br&gt;&lt;/div&gt;&lt;div&gt;公告（公告id，公告标题，公告内容，发布时间，查看范围，发布管理员id）&lt;/div&gt;&lt;div&gt;&lt;br&gt;&lt;/div&gt;&lt;div&gt;日志（日志id，用户id，操作内容，操作时间）&lt;/div&gt;&lt;div&gt;&lt;br&gt;&lt;/div&gt;" style="shape=note;whiteSpace=wrap;html=1;backgroundOutline=1;fontColor=#000000;darkOpacity=0.05;fillColor=#FFF9B2;strokeColor=none;fillStyle=solid;direction=west;gradientDirection=north;gradientColor=#FFF2A1;shadow=1;size=20;pointerEvents=1;fontFamily=Architects Daughter;fontSource=https%3A%2F%2Ffonts.googleapis.com%2Fcss%3Ffamily%3DArchitects%2BDaughter;" parent="1" vertex="1">
          <mxGeometry x="-993" y="-873" width="991" height="472" as="geometry" />
        </mxCell>
        <mxCell id="m6dT4jvuTC2rRvqjz5hP-8" value="&lt;h1&gt;改密码&lt;/h1&gt;" style="rounded=0;whiteSpace=wrap;html=1;fontFamily=Architects Daughter;fontSource=https%3A%2F%2Ffonts.googleapis.com%2Fcss%3Ffamily%3DArchitects%2BDaughter;fillColor=#ffe6cc;strokeColor=#d79b00;" parent="1" vertex="1">
          <mxGeometry x="-1559" y="605" width="120" height="60" as="geometry" />
        </mxCell>
        <mxCell id="dKxG8-n3S7vR00bSveLO-1" value="&lt;h1&gt;分配&lt;/h1&gt;" style="rounded=0;whiteSpace=wrap;html=1;fontFamily=Architects Daughter;fontSource=https%3A%2F%2Ffonts.googleapis.com%2Fcss%3Ffamily%3DArchitects%2BDaughter;fillColor=#ffe6cc;strokeColor=#d79b00;" parent="1" vertex="1">
          <mxGeometry x="-712" y="535" width="120" height="60" as="geometry" />
        </mxCell>
        <mxCell id="JfpqHyZkCKlFZTyyI2uk-1" value="&lt;div&gt;&lt;span style=&quot;background-color: transparent; color: light-dark(rgb(0, 0, 0), rgb(237, 237, 237));&quot;&gt;用户（&lt;/span&gt;&lt;span style=&quot;background-color: transparent; color: light-dark(rgb(0, 0, 0), rgb(237, 237, 237));&quot;&gt;id，&lt;/span&gt;&lt;span style=&quot;background-color: transparent; color: light-dark(rgb(0, 0, 0), rgb(237, 237, 237));&quot;&gt;学号/工号，&lt;/span&gt;&lt;span style=&quot;background-color: transparent; color: light-dark(rgb(0, 0, 0), rgb(237, 237, 237));&quot;&gt;用户名，密码，权限，角色类型，头像url，创建时间，&lt;/span&gt;&lt;span style=&quot;background-color: transparent; color: light-dark(rgb(0, 0, 0), rgb(237, 237, 237));&quot;&gt;姓名，&lt;/span&gt;&lt;span style=&quot;color: light-dark(rgb(0, 0, 0), rgb(237, 237, 237)); background-color: rgb(102, 204, 0);&quot;&gt;学院，专业，&lt;/span&gt;&lt;span style=&quot;background-color: rgb(0, 0, 255);&quot;&gt;&lt;span style=&quot;background-color: rgb(102, 204, 0);&quot;&gt;班级，年级&lt;/span&gt;，&lt;/span&gt;&lt;span style=&quot;background-color: transparent; color: light-dark(rgb(0, 0, 0), rgb(237, 237, 237));&quot;&gt;手机号，电子邮箱，&lt;/span&gt;&lt;span style=&quot;background-color: rgb(0, 0, 255);&quot;&gt;&lt;span style=&quot;background-color: rgb(102, 204, 0);&quot;&gt;所属社团id&lt;/span&gt;，&lt;/span&gt;&lt;span style=&quot;background-color: transparent; color: light-dark(rgb(0, 0, 0), rgb(237, 237, 237));&quot;&gt;更新时间&lt;/span&gt;&lt;span style=&quot;background-color: transparent; color: light-dark(rgb(0, 0, 0), rgb(237, 237, 237));&quot;&gt;）&lt;/span&gt;&lt;/div&gt;&lt;div&gt;&lt;span style=&quot;background-color: transparent; color: light-dark(rgb(0, 0, 0), rgb(237, 237, 237));&quot;&gt;&lt;br&gt;&lt;/span&gt;&lt;/div&gt;&lt;div&gt;班级关系（id，班级id，学生id）&lt;/div&gt;&lt;div&gt;班级（班级id，班级名称，专业id，年级id）&lt;/div&gt;&lt;div&gt;年级（年级id，年级）&lt;/div&gt;&lt;div&gt;专业（专业id，专业名称，学院id）&lt;/div&gt;&lt;div&gt;学院（学院id，学院名称）&lt;/div&gt;&lt;div&gt;&lt;br&gt;&lt;/div&gt;&lt;div&gt;社团（社团id，社团名，社团简介，所属学院，上级社团id，&lt;span style=&quot;background-color: rgb(51, 51, 255);&quot;&gt;指导老师id，&lt;/span&gt;创建时间）&lt;/div&gt;&lt;div&gt;社团关系（社团id，用户id，角色名称id）&lt;/div&gt;&lt;div&gt;角色名称表（id，角色名称）&lt;/div&gt;&lt;div&gt;社团活动（活动id，活动名称，所属学院id，活动内容，&lt;span style=&quot;color: light-dark(rgb(0, 0, 0), rgb(237, 237, 237)); background-color: rgb(51, 51, 255);&quot;&gt;活动地点[]，&lt;/span&gt;&lt;span style=&quot;background-color: transparent; color: light-dark(rgb(0, 0, 0), rgb(237, 237, 237));&quot;&gt;活动开始时间，活动结束时间，申请提交时间，通过时间，&lt;/span&gt;&lt;span style=&quot;background-color: transparent; color: light-dark(rgb(0, 0, 0), rgb(237, 237, 237));&quot;&gt;允许参加范围，状态，报名限制人数，&lt;/span&gt;&lt;span style=&quot;color: light-dark(rgb(0, 0, 0), rgb(237, 237, 237)); background-color: rgb(102, 204, 0);&quot;&gt;签到ip地址&lt;/span&gt;&lt;span style=&quot;background-color: transparent; color: light-dark(rgb(0, 0, 0), rgb(237, 237, 237));&quot;&gt;）&lt;/span&gt;&lt;/div&gt;&lt;div&gt;：&lt;span style=&quot;background-color: transparent; color: light-dark(rgb(0, 0, 0), rgb(237, 237, 237));&quot;&gt;签到ip地址（&lt;/span&gt;&lt;span style=&quot;background-color: transparent; color: light-dark(rgb(0, 0, 0), rgb(237, 237, 237));&quot;&gt;无就是不签到）&lt;/span&gt;&lt;/div&gt;&lt;div&gt;：状态（审核中、通过、未通过）&lt;/div&gt;&lt;div&gt;&lt;br&gt;&lt;/div&gt;&lt;div&gt;参与流程（id，参与方式&lt;span style=&quot;background-color: transparent; color: light-dark(rgb(0, 0, 0), rgb(237, 237, 237));&quot;&gt;）&lt;/span&gt;&lt;/div&gt;&lt;div&gt;&lt;span style=&quot;background-color: transparent; color: light-dark(rgb(0, 0, 0), rgb(237, 237, 237));&quot;&gt;活动参与流程（id，活动id，参与方式id，说明，进度）&lt;/span&gt;&lt;/div&gt;&lt;div&gt;&lt;span style=&quot;background-color: transparent; color: light-dark(rgb(0, 0, 0), rgb(237, 237, 237));&quot;&gt;&lt;br&gt;&lt;/span&gt;&lt;/div&gt;&lt;div&gt;&lt;span style=&quot;background-color: transparent; color: light-dark(rgb(0, 0, 0), rgb(237, 237, 237));&quot;&gt;活动场地（地点id，具体地址）&lt;/span&gt;&lt;/div&gt;&lt;div&gt;&lt;span style=&quot;background-color: transparent; color: light-dark(rgb(0, 0, 0), rgb(237, 237, 237));&quot;&gt;活动场地分配（id，活动id，地点id，状态，创建时间，审核时间）&lt;/span&gt;&lt;/div&gt;&lt;div&gt;&lt;span style=&quot;background-color: transparent; color: light-dark(rgb(0, 0, 0), rgb(237, 237, 237));&quot;&gt;&lt;br&gt;&lt;/span&gt;&lt;/div&gt;&lt;div&gt;&lt;span style=&quot;background-color: transparent; color: light-dark(rgb(0, 0, 0), rgb(237, 237, 237));&quot;&gt;活动报名（学生id，活动id，报名时间，状态）&lt;/span&gt;&lt;/div&gt;&lt;div&gt;：状态（审核中、通过、未通过）&lt;/div&gt;&lt;div&gt;&lt;br&gt;&lt;/div&gt;&lt;div&gt;活动评论（1）（评论id，活动id，用户名，评论内容，评论时间）&lt;/div&gt;&lt;div&gt;活动评论（2）（评论id，父级评论id，用户名，@用户名，回复内容，&lt;span style=&quot;background-color: transparent; color: light-dark(rgb(0, 0, 0), rgb(237, 237, 237));&quot;&gt;评论时间&lt;/span&gt;&lt;span style=&quot;background-color: transparent; color: light-dark(rgb(0, 0, 0), rgb(237, 237, 237));&quot;&gt;）&lt;/span&gt;&lt;/div&gt;&lt;div&gt;&lt;br&gt;&lt;/div&gt;&lt;div&gt;公告（公告id，公告标题，公告内容，发布时间，院/校通知，发布管理员id）&lt;/div&gt;&lt;div&gt;&lt;br&gt;&lt;/div&gt;&lt;div&gt;日志（日志id，用户id，操作内容，操作时间）&lt;/div&gt;&lt;div&gt;&lt;br&gt;&lt;/div&gt;" style="shape=note;whiteSpace=wrap;html=1;backgroundOutline=1;fontColor=#000000;darkOpacity=0.05;fillColor=#FFF9B2;strokeColor=none;fillStyle=solid;direction=west;gradientDirection=north;gradientColor=#FFF2A1;shadow=1;size=20;pointerEvents=1;fontFamily=Architects Daughter;fontSource=https%3A%2F%2Ffonts.googleapis.com%2Fcss%3Ffamily%3DArchitects%2BDaughter;" parent="1" vertex="1">
          <mxGeometry x="-1377" y="-129" width="991" height="472" as="geometry" />
        </mxCell>
        <mxCell id="RmhXQOe-VR67IW-5vcir-1" value="&lt;h1&gt;参与&lt;/h1&gt;" style="rounded=0;whiteSpace=wrap;html=1;fontFamily=Architects Daughter;fontSource=https%3A%2F%2Ffonts.googleapis.com%2Fcss%3Ffamily%3DArchitects%2BDaughter;fillColor=#dae8fc;strokeColor=#6c8ebf;" parent="1" vertex="1">
          <mxGeometry x="-985" y="528" width="120" height="60" as="geometry" />
        </mxCell>
        <mxCell id="g4wV-7bCnr3QMaH24BYD-1" value="活动场地表" style="whiteSpace=wrap;html=1;align=center;fontFamily=Architects Daughter;fontSource=https%3A%2F%2Ffonts.googleapis.com%2Fcss%3Ffamily%3DArchitects%2BDaughter;" parent="1" vertex="1">
          <mxGeometry x="629" y="-79" width="100" height="40" as="geometry" />
        </mxCell>
        <mxCell id="g4wV-7bCnr3QMaH24BYD-2" value="&lt;font style=&quot;font-size: 40px;&quot;&gt;用户表&lt;/font&gt;" style="whiteSpace=wrap;html=1;align=center;fontFamily=Architects Daughter;fontSource=https%3A%2F%2Ffonts.googleapis.com%2Fcss%3Ffamily%3DArchitects%2BDaughter;" parent="1" vertex="1">
          <mxGeometry x="2346" y="558.87" width="136.5" height="59" as="geometry" />
        </mxCell>
        <mxCell id="g4wV-7bCnr3QMaH24BYD-6" value="&lt;font style=&quot;font-size: 40px;&quot;&gt;专业表&lt;/font&gt;" style="whiteSpace=wrap;html=1;align=center;fontFamily=Architects Daughter;fontSource=https%3A%2F%2Ffonts.googleapis.com%2Fcss%3Ffamily%3DArchitects%2BDaughter;" parent="1" vertex="1">
          <mxGeometry x="2615" y="207" width="139.5" height="52" as="geometry" />
        </mxCell>
        <mxCell id="g4wV-7bCnr3QMaH24BYD-7" value="&lt;font style=&quot;font-size: 40px;&quot;&gt;学院表&lt;/font&gt;" style="whiteSpace=wrap;html=1;align=center;fontFamily=Architects Daughter;fontSource=https%3A%2F%2Ffonts.googleapis.com%2Fcss%3Ffamily%3DArchitects%2BDaughter;" parent="1" vertex="1">
          <mxGeometry x="3108" y="205" width="146.5" height="54" as="geometry" />
        </mxCell>
        <mxCell id="g4wV-7bCnr3QMaH24BYD-10" value="&lt;font style=&quot;font-size: 40px;&quot;&gt;社团表&lt;/font&gt;" style="whiteSpace=wrap;html=1;align=center;fontFamily=Architects Daughter;fontSource=https%3A%2F%2Ffonts.googleapis.com%2Fcss%3Ffamily%3DArchitects%2BDaughter;" parent="1" vertex="1">
          <mxGeometry x="3094" y="508" width="156" height="61" as="geometry" />
        </mxCell>
        <mxCell id="g4wV-7bCnr3QMaH24BYD-11" value="&lt;font style=&quot;font-size: 40px;&quot;&gt;社团活动表&lt;/font&gt;" style="whiteSpace=wrap;html=1;align=center;fontFamily=Architects Daughter;fontSource=https%3A%2F%2Ffonts.googleapis.com%2Fcss%3Ffamily%3DArchitects%2BDaughter;" parent="1" vertex="1">
          <mxGeometry x="3531" y="505" width="182" height="99" as="geometry" />
        </mxCell>
        <mxCell id="g4wV-7bCnr3QMaH24BYD-12" value="&lt;font style=&quot;font-size: 40px;&quot;&gt;活动场地表&lt;/font&gt;" style="whiteSpace=wrap;html=1;align=center;fontFamily=Architects Daughter;fontSource=https%3A%2F%2Ffonts.googleapis.com%2Fcss%3Ffamily%3DArchitects%2BDaughter;" parent="1" vertex="1">
          <mxGeometry x="3618" y="130.5" width="188" height="100" as="geometry" />
        </mxCell>
        <mxCell id="g4wV-7bCnr3QMaH24BYD-13" value="&lt;font style=&quot;font-size: 40px;&quot;&gt;活动场地分配表&lt;/font&gt;" style="whiteSpace=wrap;html=1;align=center;fontFamily=Architects Daughter;fontSource=https%3A%2F%2Ffonts.googleapis.com%2Fcss%3Ffamily%3DArchitects%2BDaughter;" parent="1" vertex="1">
          <mxGeometry x="3891" y="327" width="199.5" height="91" as="geometry" />
        </mxCell>
        <mxCell id="g4wV-7bCnr3QMaH24BYD-16" value="&lt;font style=&quot;font-size: 40px;&quot;&gt;活动报名表&lt;/font&gt;" style="whiteSpace=wrap;html=1;align=center;fontFamily=Architects Daughter;fontSource=https%3A%2F%2Ffonts.googleapis.com%2Fcss%3Ffamily%3DArchitects%2BDaughter;" parent="1" vertex="1">
          <mxGeometry x="3038" y="891" width="172" height="97" as="geometry" />
        </mxCell>
        <mxCell id="g4wV-7bCnr3QMaH24BYD-17" value="&lt;font style=&quot;font-size: 40px;&quot;&gt;公告表&lt;/font&gt;" style="whiteSpace=wrap;html=1;align=center;fontFamily=Architects Daughter;fontSource=https%3A%2F%2Ffonts.googleapis.com%2Fcss%3Ffamily%3DArchitects%2BDaughter;" parent="1" vertex="1">
          <mxGeometry x="2748" y="347.5" width="145" height="53" as="geometry" />
        </mxCell>
        <mxCell id="g4wV-7bCnr3QMaH24BYD-18" value="&lt;font style=&quot;font-size: 40px;&quot;&gt;日志表&lt;/font&gt;" style="whiteSpace=wrap;html=1;align=center;fontFamily=Architects Daughter;fontSource=https%3A%2F%2Ffonts.googleapis.com%2Fcss%3Ffamily%3DArchitects%2BDaughter;" parent="1" vertex="1">
          <mxGeometry x="1727" y="564.37" width="136" height="56" as="geometry" />
        </mxCell>
        <mxCell id="g4wV-7bCnr3QMaH24BYD-19" value="&lt;font style=&quot;font-size: 40px;&quot;&gt;管理&lt;/font&gt;" style="shape=rhombus;perimeter=rhombusPerimeter;whiteSpace=wrap;html=1;align=center;fontFamily=Architects Daughter;fontSource=https%3A%2F%2Ffonts.googleapis.com%2Fcss%3Ffamily%3DArchitects%2BDaughter;" parent="1" vertex="1">
          <mxGeometry x="2749" y="597" width="149" height="68" as="geometry" />
        </mxCell>
        <mxCell id="g4wV-7bCnr3QMaH24BYD-21" value="" style="endArrow=none;html=1;rounded=0;entryX=0;entryY=0.5;entryDx=0;entryDy=0;exitX=1;exitY=0.5;exitDx=0;exitDy=0;" parent="1" source="g4wV-7bCnr3QMaH24BYD-2" target="g4wV-7bCnr3QMaH24BYD-19" edge="1">
          <mxGeometry width="50" height="50" relative="1" as="geometry">
            <mxPoint x="2862" y="700" as="sourcePoint" />
            <mxPoint x="2912" y="650" as="targetPoint" />
          </mxGeometry>
        </mxCell>
        <mxCell id="g4wV-7bCnr3QMaH24BYD-23" value="1" style="edgeLabel;html=1;align=center;verticalAlign=middle;resizable=0;points=[];fontSize=50;" parent="g4wV-7bCnr3QMaH24BYD-21" vertex="1" connectable="0">
          <mxGeometry x="-0.0372" y="-2" relative="1" as="geometry">
            <mxPoint as="offset" />
          </mxGeometry>
        </mxCell>
        <mxCell id="g4wV-7bCnr3QMaH24BYD-22" value="" style="endArrow=none;html=1;rounded=0;entryX=0;entryY=0.5;entryDx=0;entryDy=0;exitX=1;exitY=0.5;exitDx=0;exitDy=0;" parent="1" source="g4wV-7bCnr3QMaH24BYD-19" target="g4wV-7bCnr3QMaH24BYD-10" edge="1">
          <mxGeometry width="50" height="50" relative="1" as="geometry">
            <mxPoint x="2961" y="660" as="sourcePoint" />
            <mxPoint x="3010" y="660" as="targetPoint" />
          </mxGeometry>
        </mxCell>
        <mxCell id="g4wV-7bCnr3QMaH24BYD-24" value="n" style="edgeLabel;html=1;align=center;verticalAlign=middle;resizable=0;points=[];fontSize=50;" parent="g4wV-7bCnr3QMaH24BYD-22" vertex="1" connectable="0">
          <mxGeometry x="-0.0351" relative="1" as="geometry">
            <mxPoint as="offset" />
          </mxGeometry>
        </mxCell>
        <mxCell id="g4wV-7bCnr3QMaH24BYD-25" value="&lt;font style=&quot;font-size: 40px;&quot;&gt;拥有&lt;/font&gt;" style="shape=rhombus;perimeter=rhombusPerimeter;whiteSpace=wrap;html=1;align=center;fontFamily=Architects Daughter;fontSource=https%3A%2F%2Ffonts.googleapis.com%2Fcss%3Ffamily%3DArchitects%2BDaughter;" parent="1" vertex="1">
          <mxGeometry x="3302" y="524.5" width="120" height="60" as="geometry" />
        </mxCell>
        <mxCell id="g4wV-7bCnr3QMaH24BYD-28" value="" style="endArrow=none;html=1;rounded=0;entryX=0;entryY=0.5;entryDx=0;entryDy=0;exitX=1;exitY=0.5;exitDx=0;exitDy=0;" parent="1" source="g4wV-7bCnr3QMaH24BYD-10" target="g4wV-7bCnr3QMaH24BYD-25" edge="1">
          <mxGeometry width="50" height="50" relative="1" as="geometry">
            <mxPoint x="3323" y="732" as="sourcePoint" />
            <mxPoint x="3373" y="682" as="targetPoint" />
          </mxGeometry>
        </mxCell>
        <mxCell id="g4wV-7bCnr3QMaH24BYD-29" value="1" style="edgeLabel;html=1;align=center;verticalAlign=middle;resizable=0;points=[];fontSize=50;" parent="g4wV-7bCnr3QMaH24BYD-28" vertex="1" connectable="0">
          <mxGeometry x="0.041" y="-3" relative="1" as="geometry">
            <mxPoint x="1" as="offset" />
          </mxGeometry>
        </mxCell>
        <mxCell id="g4wV-7bCnr3QMaH24BYD-30" value="" style="endArrow=none;html=1;rounded=0;entryX=0;entryY=0.5;entryDx=0;entryDy=0;exitX=1;exitY=0.5;exitDx=0;exitDy=0;" parent="1" source="g4wV-7bCnr3QMaH24BYD-25" target="g4wV-7bCnr3QMaH24BYD-11" edge="1">
          <mxGeometry width="50" height="50" relative="1" as="geometry">
            <mxPoint x="3296" y="900" as="sourcePoint" />
            <mxPoint x="3346" y="850" as="targetPoint" />
          </mxGeometry>
        </mxCell>
        <mxCell id="g4wV-7bCnr3QMaH24BYD-31" value="n" style="edgeLabel;html=1;align=center;verticalAlign=middle;resizable=0;points=[];fontSize=50;" parent="g4wV-7bCnr3QMaH24BYD-30" vertex="1" connectable="0">
          <mxGeometry x="-0.0743" y="-2" relative="1" as="geometry">
            <mxPoint x="1" as="offset" />
          </mxGeometry>
        </mxCell>
        <mxCell id="g4wV-7bCnr3QMaH24BYD-32" value="&lt;font style=&quot;font-size: 40px;&quot;&gt;报名&lt;/font&gt;" style="shape=rhombus;perimeter=rhombusPerimeter;whiteSpace=wrap;html=1;align=center;fontFamily=Architects Daughter;fontSource=https%3A%2F%2Ffonts.googleapis.com%2Fcss%3Ffamily%3DArchitects%2BDaughter;" parent="1" vertex="1">
          <mxGeometry x="3147" y="704" width="178" height="69" as="geometry" />
        </mxCell>
        <mxCell id="g4wV-7bCnr3QMaH24BYD-34" value="&lt;font style=&quot;font-size: 40px;&quot;&gt;拥有&lt;/font&gt;" style="shape=rhombus;perimeter=rhombusPerimeter;whiteSpace=wrap;html=1;align=center;fontFamily=Architects Daughter;fontSource=https%3A%2F%2Ffonts.googleapis.com%2Fcss%3Ffamily%3DArchitects%2BDaughter;" parent="1" vertex="1">
          <mxGeometry x="2845" y="193" width="159" height="73.5" as="geometry" />
        </mxCell>
        <mxCell id="g4wV-7bCnr3QMaH24BYD-36" value="" style="endArrow=none;html=1;rounded=0;entryX=0;entryY=0.5;entryDx=0;entryDy=0;exitX=1;exitY=0.5;exitDx=0;exitDy=0;" parent="1" source="g4wV-7bCnr3QMaH24BYD-34" target="g4wV-7bCnr3QMaH24BYD-7" edge="1">
          <mxGeometry width="50" height="50" relative="1" as="geometry">
            <mxPoint x="3191" y="467" as="sourcePoint" />
            <mxPoint x="3241" y="417" as="targetPoint" />
          </mxGeometry>
        </mxCell>
        <mxCell id="g4wV-7bCnr3QMaH24BYD-38" value="1" style="edgeLabel;html=1;align=center;verticalAlign=middle;resizable=0;points=[];fontSize=50;" parent="g4wV-7bCnr3QMaH24BYD-36" vertex="1" connectable="0">
          <mxGeometry x="-0.1932" y="3" relative="1" as="geometry">
            <mxPoint as="offset" />
          </mxGeometry>
        </mxCell>
        <mxCell id="g4wV-7bCnr3QMaH24BYD-37" value="" style="endArrow=none;html=1;rounded=0;entryX=1;entryY=0.5;entryDx=0;entryDy=0;exitX=0;exitY=0.5;exitDx=0;exitDy=0;" parent="1" source="g4wV-7bCnr3QMaH24BYD-34" target="g4wV-7bCnr3QMaH24BYD-6" edge="1">
          <mxGeometry width="50" height="50" relative="1" as="geometry">
            <mxPoint x="2812" y="515" as="sourcePoint" />
            <mxPoint x="2862" y="465" as="targetPoint" />
          </mxGeometry>
        </mxCell>
        <mxCell id="g4wV-7bCnr3QMaH24BYD-39" value="n" style="edgeLabel;html=1;align=center;verticalAlign=middle;resizable=0;points=[];fontSize=50;" parent="g4wV-7bCnr3QMaH24BYD-37" vertex="1" connectable="0">
          <mxGeometry x="0.0311" y="1" relative="1" as="geometry">
            <mxPoint as="offset" />
          </mxGeometry>
        </mxCell>
        <mxCell id="g4wV-7bCnr3QMaH24BYD-41" value="&lt;font style=&quot;font-size: 40px;&quot;&gt;拥有&lt;/font&gt;" style="shape=rhombus;perimeter=rhombusPerimeter;whiteSpace=wrap;html=1;align=center;fontFamily=Architects Daughter;fontSource=https%3A%2F%2Ffonts.googleapis.com%2Fcss%3Ffamily%3DArchitects%2BDaughter;" parent="1" vertex="1">
          <mxGeometry x="2306.5" y="119.88" width="176" height="67.75" as="geometry" />
        </mxCell>
        <mxCell id="g4wV-7bCnr3QMaH24BYD-42" value="" style="endArrow=none;html=1;rounded=0;exitX=0;exitY=0.5;exitDx=0;exitDy=0;entryX=1;entryY=1;entryDx=0;entryDy=0;" parent="1" source="g4wV-7bCnr3QMaH24BYD-6" target="g4wV-7bCnr3QMaH24BYD-41" edge="1">
          <mxGeometry width="50" height="50" relative="1" as="geometry">
            <mxPoint x="2917" y="538" as="sourcePoint" />
            <mxPoint x="2723" y="403" as="targetPoint" />
          </mxGeometry>
        </mxCell>
        <mxCell id="g4wV-7bCnr3QMaH24BYD-47" value="1" style="edgeLabel;html=1;align=center;verticalAlign=middle;resizable=0;points=[];fontSize=50;" parent="g4wV-7bCnr3QMaH24BYD-42" vertex="1" connectable="0">
          <mxGeometry x="0.0069" y="-3" relative="1" as="geometry">
            <mxPoint as="offset" />
          </mxGeometry>
        </mxCell>
        <mxCell id="g4wV-7bCnr3QMaH24BYD-43" value="" style="endArrow=none;html=1;rounded=0;entryX=1;entryY=0.5;entryDx=0;entryDy=0;exitX=0;exitY=0.5;exitDx=0;exitDy=0;" parent="1" source="g4wV-7bCnr3QMaH24BYD-41" target="g4wV-7bCnr3QMaH24BYD-44" edge="1">
          <mxGeometry width="50" height="50" relative="1" as="geometry">
            <mxPoint x="2524" y="286" as="sourcePoint" />
            <mxPoint x="3390" y="354" as="targetPoint" />
          </mxGeometry>
        </mxCell>
        <mxCell id="g4wV-7bCnr3QMaH24BYD-48" value="n" style="edgeLabel;html=1;align=center;verticalAlign=middle;resizable=0;points=[];fontSize=50;" parent="g4wV-7bCnr3QMaH24BYD-43" vertex="1" connectable="0">
          <mxGeometry x="-0.0216" y="1" relative="1" as="geometry">
            <mxPoint as="offset" />
          </mxGeometry>
        </mxCell>
        <mxCell id="g4wV-7bCnr3QMaH24BYD-44" value="&lt;font style=&quot;font-size: 40px;&quot;&gt;班级表&lt;/font&gt;" style="whiteSpace=wrap;html=1;align=center;fontFamily=Architects Daughter;fontSource=https%3A%2F%2Ffonts.googleapis.com%2Fcss%3Ffamily%3DArchitects%2BDaughter;" parent="1" vertex="1">
          <mxGeometry x="2055" y="126" width="146" height="55.5" as="geometry" />
        </mxCell>
        <mxCell id="g4wV-7bCnr3QMaH24BYD-45" value="&lt;font style=&quot;font-size: 40px;&quot;&gt;年级表&lt;/font&gt;" style="whiteSpace=wrap;html=1;align=center;fontFamily=Architects Daughter;fontSource=https%3A%2F%2Ffonts.googleapis.com%2Fcss%3Ffamily%3DArchitects%2BDaughter;" parent="1" vertex="1">
          <mxGeometry x="2615" y="79.5" width="145.5" height="52" as="geometry" />
        </mxCell>
        <mxCell id="g4wV-7bCnr3QMaH24BYD-46" value="" style="endArrow=none;html=1;rounded=0;entryX=0;entryY=0.5;entryDx=0;entryDy=0;exitX=1;exitY=0;exitDx=0;exitDy=0;" parent="1" source="g4wV-7bCnr3QMaH24BYD-41" target="g4wV-7bCnr3QMaH24BYD-45" edge="1">
          <mxGeometry width="50" height="50" relative="1" as="geometry">
            <mxPoint x="2733" y="304" as="sourcePoint" />
            <mxPoint x="3241" y="417" as="targetPoint" />
          </mxGeometry>
        </mxCell>
        <mxCell id="g4wV-7bCnr3QMaH24BYD-54" value="1" style="edgeLabel;html=1;align=center;verticalAlign=middle;resizable=0;points=[];fontSize=50;" parent="g4wV-7bCnr3QMaH24BYD-46" vertex="1" connectable="0">
          <mxGeometry x="0.0594" y="3" relative="1" as="geometry">
            <mxPoint as="offset" />
          </mxGeometry>
        </mxCell>
        <mxCell id="g4wV-7bCnr3QMaH24BYD-49" value="&lt;font style=&quot;font-size: 44px;&quot;&gt;隶属&lt;/font&gt;" style="shape=rhombus;perimeter=rhombusPerimeter;whiteSpace=wrap;html=1;align=center;fontFamily=Architects Daughter;fontSource=https%3A%2F%2Ffonts.googleapis.com%2Fcss%3Ffamily%3DArchitects%2BDaughter;" parent="1" vertex="1">
          <mxGeometry x="3091" y="340" width="171.5" height="78" as="geometry" />
        </mxCell>
        <mxCell id="g4wV-7bCnr3QMaH24BYD-50" value="" style="endArrow=none;html=1;rounded=0;entryX=0.5;entryY=0;entryDx=0;entryDy=0;exitX=0.5;exitY=1;exitDx=0;exitDy=0;" parent="1" source="g4wV-7bCnr3QMaH24BYD-7" target="g4wV-7bCnr3QMaH24BYD-49" edge="1">
          <mxGeometry width="50" height="50" relative="1" as="geometry">
            <mxPoint x="2844" y="512" as="sourcePoint" />
            <mxPoint x="2894" y="462" as="targetPoint" />
          </mxGeometry>
        </mxCell>
        <mxCell id="g4wV-7bCnr3QMaH24BYD-52" value="1" style="edgeLabel;html=1;align=center;verticalAlign=middle;resizable=0;points=[];fontSize=50;" parent="g4wV-7bCnr3QMaH24BYD-50" vertex="1" connectable="0">
          <mxGeometry x="-0.1776" relative="1" as="geometry">
            <mxPoint as="offset" />
          </mxGeometry>
        </mxCell>
        <mxCell id="g4wV-7bCnr3QMaH24BYD-51" value="" style="endArrow=none;html=1;rounded=0;entryX=0.5;entryY=0;entryDx=0;entryDy=0;exitX=0.5;exitY=1;exitDx=0;exitDy=0;" parent="1" source="g4wV-7bCnr3QMaH24BYD-49" target="g4wV-7bCnr3QMaH24BYD-10" edge="1">
          <mxGeometry width="50" height="50" relative="1" as="geometry">
            <mxPoint x="3191" y="478" as="sourcePoint" />
            <mxPoint x="3241" y="428" as="targetPoint" />
          </mxGeometry>
        </mxCell>
        <mxCell id="g4wV-7bCnr3QMaH24BYD-53" value="n" style="edgeLabel;html=1;align=center;verticalAlign=middle;resizable=0;points=[];fontSize=50;" parent="g4wV-7bCnr3QMaH24BYD-51" vertex="1" connectable="0">
          <mxGeometry x="-0.0746" y="-2" relative="1" as="geometry">
            <mxPoint as="offset" />
          </mxGeometry>
        </mxCell>
        <mxCell id="g4wV-7bCnr3QMaH24BYD-55" value="" style="endArrow=none;html=1;rounded=0;entryX=0.5;entryY=1;entryDx=0;entryDy=0;exitX=1;exitY=0.5;exitDx=0;exitDy=0;" parent="1" source="g4wV-7bCnr3QMaH24BYD-32" target="g4wV-7bCnr3QMaH24BYD-11" edge="1">
          <mxGeometry width="50" height="50" relative="1" as="geometry">
            <mxPoint x="3295" y="531" as="sourcePoint" />
            <mxPoint x="3345" y="481" as="targetPoint" />
          </mxGeometry>
        </mxCell>
        <mxCell id="g4wV-7bCnr3QMaH24BYD-58" value="1" style="edgeLabel;html=1;align=center;verticalAlign=middle;resizable=0;points=[];fontSize=50;" parent="g4wV-7bCnr3QMaH24BYD-55" vertex="1" connectable="0">
          <mxGeometry x="-0.026" y="-1" relative="1" as="geometry">
            <mxPoint as="offset" />
          </mxGeometry>
        </mxCell>
        <mxCell id="g4wV-7bCnr3QMaH24BYD-56" value="" style="endArrow=none;html=1;rounded=0;entryX=0.5;entryY=1;entryDx=0;entryDy=0;exitX=0;exitY=0.5;exitDx=0;exitDy=0;" parent="1" source="g4wV-7bCnr3QMaH24BYD-32" target="g4wV-7bCnr3QMaH24BYD-2" edge="1">
          <mxGeometry width="50" height="50" relative="1" as="geometry">
            <mxPoint x="3295" y="531" as="sourcePoint" />
            <mxPoint x="3345" y="481" as="targetPoint" />
          </mxGeometry>
        </mxCell>
        <mxCell id="g4wV-7bCnr3QMaH24BYD-60" value="1" style="edgeLabel;html=1;align=center;verticalAlign=middle;resizable=0;points=[];fontSize=50;" parent="g4wV-7bCnr3QMaH24BYD-56" vertex="1" connectable="0">
          <mxGeometry x="-0.5613" y="1" relative="1" as="geometry">
            <mxPoint as="offset" />
          </mxGeometry>
        </mxCell>
        <mxCell id="g4wV-7bCnr3QMaH24BYD-57" value="" style="endArrow=none;html=1;rounded=0;entryX=0.5;entryY=1;entryDx=0;entryDy=0;exitX=0.5;exitY=0;exitDx=0;exitDy=0;" parent="1" source="g4wV-7bCnr3QMaH24BYD-16" target="g4wV-7bCnr3QMaH24BYD-32" edge="1">
          <mxGeometry width="50" height="50" relative="1" as="geometry">
            <mxPoint x="3279" y="635" as="sourcePoint" />
            <mxPoint x="3329" y="585" as="targetPoint" />
          </mxGeometry>
        </mxCell>
        <mxCell id="g4wV-7bCnr3QMaH24BYD-59" value="n" style="edgeLabel;html=1;align=center;verticalAlign=middle;resizable=0;points=[];fontSize=50;" parent="g4wV-7bCnr3QMaH24BYD-57" vertex="1" connectable="0">
          <mxGeometry x="0.0504" y="2" relative="1" as="geometry">
            <mxPoint as="offset" />
          </mxGeometry>
        </mxCell>
        <mxCell id="g4wV-7bCnr3QMaH24BYD-61" value="&lt;font style=&quot;font-size: 40px;&quot;&gt;拥有&lt;/font&gt;" style="shape=rhombus;perimeter=rhombusPerimeter;whiteSpace=wrap;html=1;align=center;fontFamily=Architects Daughter;fontSource=https%3A%2F%2Ffonts.googleapis.com%2Fcss%3Ffamily%3DArchitects%2BDaughter;" parent="1" vertex="1">
          <mxGeometry x="3914.25" y="147" width="154" height="67" as="geometry" />
        </mxCell>
        <mxCell id="g4wV-7bCnr3QMaH24BYD-62" value="" style="endArrow=none;html=1;rounded=0;entryX=0.5;entryY=1;entryDx=0;entryDy=0;exitX=0.5;exitY=0;exitDx=0;exitDy=0;" parent="1" source="g4wV-7bCnr3QMaH24BYD-13" target="g4wV-7bCnr3QMaH24BYD-61" edge="1">
          <mxGeometry width="50" height="50" relative="1" as="geometry">
            <mxPoint x="3467.75" y="340" as="sourcePoint" />
            <mxPoint x="3517.75" y="290" as="targetPoint" />
          </mxGeometry>
        </mxCell>
        <mxCell id="nn8bwB5qxwumT2WYkks2-5" value="n" style="edgeLabel;html=1;align=center;verticalAlign=middle;resizable=0;points=[];fontSize=50;" vertex="1" connectable="0" parent="g4wV-7bCnr3QMaH24BYD-62">
          <mxGeometry x="-0.0796" y="1" relative="1" as="geometry">
            <mxPoint as="offset" />
          </mxGeometry>
        </mxCell>
        <mxCell id="g4wV-7bCnr3QMaH24BYD-63" value="" style="endArrow=none;html=1;rounded=0;entryX=0;entryY=0.5;entryDx=0;entryDy=0;exitX=1;exitY=0.5;exitDx=0;exitDy=0;" parent="1" source="g4wV-7bCnr3QMaH24BYD-12" target="g4wV-7bCnr3QMaH24BYD-61" edge="1">
          <mxGeometry width="50" height="50" relative="1" as="geometry">
            <mxPoint x="3467.75" y="278" as="sourcePoint" />
            <mxPoint x="3517.75" y="228" as="targetPoint" />
          </mxGeometry>
        </mxCell>
        <mxCell id="g4wV-7bCnr3QMaH24BYD-64" value="1" style="edgeLabel;html=1;align=center;verticalAlign=middle;resizable=0;points=[];fontSize=50;" parent="g4wV-7bCnr3QMaH24BYD-63" vertex="1" connectable="0">
          <mxGeometry x="0.0622" y="2" relative="1" as="geometry">
            <mxPoint as="offset" />
          </mxGeometry>
        </mxCell>
        <mxCell id="g4wV-7bCnr3QMaH24BYD-66" value="&lt;font style=&quot;font-size: 40px;&quot;&gt;拥有&lt;/font&gt;" style="shape=rhombus;perimeter=rhombusPerimeter;whiteSpace=wrap;html=1;align=center;fontFamily=Architects Daughter;fontSource=https%3A%2F%2Ffonts.googleapis.com%2Fcss%3Ffamily%3DArchitects%2BDaughter;" parent="1" vertex="1">
          <mxGeometry x="3912.5" y="515" width="162" height="73.5" as="geometry" />
        </mxCell>
        <mxCell id="g4wV-7bCnr3QMaH24BYD-67" value="" style="endArrow=none;html=1;rounded=0;entryX=0;entryY=0.5;entryDx=0;entryDy=0;exitX=1;exitY=0.5;exitDx=0;exitDy=0;" parent="1" source="g4wV-7bCnr3QMaH24BYD-11" target="g4wV-7bCnr3QMaH24BYD-66" edge="1">
          <mxGeometry width="50" height="50" relative="1" as="geometry">
            <mxPoint x="3892" y="541.5" as="sourcePoint" />
            <mxPoint x="3524" y="468" as="targetPoint" />
          </mxGeometry>
        </mxCell>
        <mxCell id="g4wV-7bCnr3QMaH24BYD-69" value="1" style="edgeLabel;html=1;align=center;verticalAlign=middle;resizable=0;points=[];fontSize=50;" parent="g4wV-7bCnr3QMaH24BYD-67" vertex="1" connectable="0">
          <mxGeometry x="0.0008" y="-4" relative="1" as="geometry">
            <mxPoint as="offset" />
          </mxGeometry>
        </mxCell>
        <mxCell id="g4wV-7bCnr3QMaH24BYD-68" value="" style="endArrow=none;html=1;rounded=0;entryX=0.5;entryY=1;entryDx=0;entryDy=0;exitX=0.5;exitY=0;exitDx=0;exitDy=0;" parent="1" source="g4wV-7bCnr3QMaH24BYD-66" target="g4wV-7bCnr3QMaH24BYD-13" edge="1">
          <mxGeometry width="50" height="50" relative="1" as="geometry">
            <mxPoint x="3474" y="518" as="sourcePoint" />
            <mxPoint x="3524" y="468" as="targetPoint" />
          </mxGeometry>
        </mxCell>
        <mxCell id="g4wV-7bCnr3QMaH24BYD-70" value="n" style="edgeLabel;html=1;align=center;verticalAlign=middle;resizable=0;points=[];fontSize=50;" parent="g4wV-7bCnr3QMaH24BYD-68" vertex="1" connectable="0">
          <mxGeometry x="-0.0737" relative="1" as="geometry">
            <mxPoint as="offset" />
          </mxGeometry>
        </mxCell>
        <mxCell id="g4wV-7bCnr3QMaH24BYD-71" value="&lt;font style=&quot;font-size: 40px;&quot;&gt;记录&lt;/font&gt;" style="shape=rhombus;perimeter=rhombusPerimeter;whiteSpace=wrap;html=1;align=center;fontFamily=Architects Daughter;fontSource=https%3A%2F%2Ffonts.googleapis.com%2Fcss%3Ffamily%3DArchitects%2BDaughter;" parent="1" vertex="1">
          <mxGeometry x="2027" y="558.87" width="133" height="67" as="geometry" />
        </mxCell>
        <mxCell id="g4wV-7bCnr3QMaH24BYD-72" value="" style="endArrow=none;html=1;rounded=0;entryX=1;entryY=0.5;entryDx=0;entryDy=0;exitX=0;exitY=0.5;exitDx=0;exitDy=0;" parent="1" source="g4wV-7bCnr3QMaH24BYD-2" target="g4wV-7bCnr3QMaH24BYD-71" edge="1">
          <mxGeometry width="50" height="50" relative="1" as="geometry">
            <mxPoint x="2736" y="525.87" as="sourcePoint" />
            <mxPoint x="2786" y="475.87" as="targetPoint" />
          </mxGeometry>
        </mxCell>
        <mxCell id="g4wV-7bCnr3QMaH24BYD-74" value="1" style="edgeLabel;html=1;align=center;verticalAlign=middle;resizable=0;points=[];fontSize=50;" parent="g4wV-7bCnr3QMaH24BYD-72" vertex="1" connectable="0">
          <mxGeometry x="-0.0408" y="-1" relative="1" as="geometry">
            <mxPoint x="-1" as="offset" />
          </mxGeometry>
        </mxCell>
        <mxCell id="g4wV-7bCnr3QMaH24BYD-73" value="" style="endArrow=none;html=1;rounded=0;entryX=1;entryY=0.5;entryDx=0;entryDy=0;exitX=0;exitY=0.5;exitDx=0;exitDy=0;" parent="1" source="g4wV-7bCnr3QMaH24BYD-71" target="g4wV-7bCnr3QMaH24BYD-18" edge="1">
          <mxGeometry width="50" height="50" relative="1" as="geometry">
            <mxPoint x="2736" y="525.87" as="sourcePoint" />
            <mxPoint x="2786" y="475.87" as="targetPoint" />
          </mxGeometry>
        </mxCell>
        <mxCell id="g4wV-7bCnr3QMaH24BYD-75" value="n" style="edgeLabel;html=1;align=center;verticalAlign=middle;resizable=0;points=[];fontSize=50;" parent="g4wV-7bCnr3QMaH24BYD-73" vertex="1" connectable="0">
          <mxGeometry x="-0.0521" relative="1" as="geometry">
            <mxPoint x="-1" as="offset" />
          </mxGeometry>
        </mxCell>
        <mxCell id="g4wV-7bCnr3QMaH24BYD-76" value="&lt;font style=&quot;font-size: 40px;&quot;&gt;发布&lt;/font&gt;" style="shape=rhombus;perimeter=rhombusPerimeter;whiteSpace=wrap;html=1;align=center;fontFamily=Architects Daughter;fontSource=https%3A%2F%2Ffonts.googleapis.com%2Fcss%3Ffamily%3DArchitects%2BDaughter;" parent="1" vertex="1">
          <mxGeometry x="2737" y="485" width="173" height="68" as="geometry" />
        </mxCell>
        <mxCell id="g4wV-7bCnr3QMaH24BYD-77" value="" style="endArrow=none;html=1;rounded=0;entryX=0.5;entryY=1;entryDx=0;entryDy=0;exitX=0.5;exitY=0;exitDx=0;exitDy=0;" parent="1" source="g4wV-7bCnr3QMaH24BYD-76" target="g4wV-7bCnr3QMaH24BYD-17" edge="1">
          <mxGeometry width="50" height="50" relative="1" as="geometry">
            <mxPoint x="3080" y="413" as="sourcePoint" />
            <mxPoint x="3130" y="363" as="targetPoint" />
          </mxGeometry>
        </mxCell>
        <mxCell id="g4wV-7bCnr3QMaH24BYD-81" value="n" style="edgeLabel;html=1;align=center;verticalAlign=middle;resizable=0;points=[];fontSize=50;" parent="g4wV-7bCnr3QMaH24BYD-77" vertex="1" connectable="0">
          <mxGeometry x="0.0417" y="1" relative="1" as="geometry">
            <mxPoint as="offset" />
          </mxGeometry>
        </mxCell>
        <mxCell id="g4wV-7bCnr3QMaH24BYD-78" value="" style="endArrow=none;html=1;rounded=0;entryX=0;entryY=0.5;entryDx=0;entryDy=0;exitX=1;exitY=0.5;exitDx=0;exitDy=0;" parent="1" source="g4wV-7bCnr3QMaH24BYD-76" target="g4wV-7bCnr3QMaH24BYD-10" edge="1">
          <mxGeometry width="50" height="50" relative="1" as="geometry">
            <mxPoint x="3080" y="413" as="sourcePoint" />
            <mxPoint x="3130" y="363" as="targetPoint" />
          </mxGeometry>
        </mxCell>
        <mxCell id="g4wV-7bCnr3QMaH24BYD-80" value="1" style="edgeLabel;html=1;align=center;verticalAlign=middle;resizable=0;points=[];fontSize=50;" parent="g4wV-7bCnr3QMaH24BYD-78" vertex="1" connectable="0">
          <mxGeometry x="-0.4187" relative="1" as="geometry">
            <mxPoint y="-1" as="offset" />
          </mxGeometry>
        </mxCell>
        <mxCell id="g4wV-7bCnr3QMaH24BYD-82" value="" style="endArrow=none;html=1;rounded=0;entryX=0;entryY=0.5;entryDx=0;entryDy=0;exitX=1;exitY=0.5;exitDx=0;exitDy=0;" parent="1" source="g4wV-7bCnr3QMaH24BYD-2" target="g4wV-7bCnr3QMaH24BYD-76" edge="1">
          <mxGeometry width="50" height="50" relative="1" as="geometry">
            <mxPoint x="3080" y="413" as="sourcePoint" />
            <mxPoint x="3130" y="363" as="targetPoint" />
          </mxGeometry>
        </mxCell>
        <mxCell id="g4wV-7bCnr3QMaH24BYD-83" value="1" style="edgeLabel;html=1;align=center;verticalAlign=middle;resizable=0;points=[];fontSize=50;" parent="g4wV-7bCnr3QMaH24BYD-82" vertex="1" connectable="0">
          <mxGeometry x="0.3422" y="-3" relative="1" as="geometry">
            <mxPoint as="offset" />
          </mxGeometry>
        </mxCell>
        <mxCell id="g4wV-7bCnr3QMaH24BYD-100" value="&lt;font style=&quot;font-size: 40px;&quot;&gt;隶属&lt;/font&gt;" style="shape=rhombus;perimeter=rhombusPerimeter;whiteSpace=wrap;html=1;align=center;fontFamily=Architects Daughter;fontSource=https%3A%2F%2Ffonts.googleapis.com%2Fcss%3Ffamily%3DArchitects%2BDaughter;" parent="1" vertex="1">
          <mxGeometry x="2039" y="336" width="173" height="68" as="geometry" />
        </mxCell>
        <mxCell id="g4wV-7bCnr3QMaH24BYD-101" value="" style="endArrow=none;html=1;rounded=0;entryX=0.5;entryY=1;entryDx=0;entryDy=0;exitX=0.5;exitY=0;exitDx=0;exitDy=0;" parent="1" source="g4wV-7bCnr3QMaH24BYD-100" target="g4wV-7bCnr3QMaH24BYD-44" edge="1">
          <mxGeometry width="50" height="50" relative="1" as="geometry">
            <mxPoint x="3041" y="544" as="sourcePoint" />
            <mxPoint x="3091" y="494" as="targetPoint" />
          </mxGeometry>
        </mxCell>
        <mxCell id="g4wV-7bCnr3QMaH24BYD-106" value="1" style="edgeLabel;html=1;align=center;verticalAlign=middle;resizable=0;points=[];fontSize=50;" parent="g4wV-7bCnr3QMaH24BYD-101" vertex="1" connectable="0">
          <mxGeometry x="0.047" y="1" relative="1" as="geometry">
            <mxPoint as="offset" />
          </mxGeometry>
        </mxCell>
        <mxCell id="g4wV-7bCnr3QMaH24BYD-102" value="" style="endArrow=none;html=1;rounded=0;entryX=0.5;entryY=1;entryDx=0;entryDy=0;exitX=0.5;exitY=0;exitDx=0;exitDy=0;" parent="1" source="g4wV-7bCnr3QMaH24BYD-2" target="g4wV-7bCnr3QMaH24BYD-100" edge="1">
          <mxGeometry width="50" height="50" relative="1" as="geometry">
            <mxPoint x="3041" y="544" as="sourcePoint" />
            <mxPoint x="3091" y="494" as="targetPoint" />
          </mxGeometry>
        </mxCell>
        <mxCell id="g4wV-7bCnr3QMaH24BYD-104" value="n" style="edgeLabel;html=1;align=center;verticalAlign=middle;resizable=0;points=[];fontSize=50;" parent="g4wV-7bCnr3QMaH24BYD-102" vertex="1" connectable="0">
          <mxGeometry x="0.1045" y="1" relative="1" as="geometry">
            <mxPoint as="offset" />
          </mxGeometry>
        </mxCell>
        <mxCell id="j6rW-VQLcNhl6mW4Knk0-1" value="&lt;font style=&quot;font-size: 40px;&quot;&gt;分配&lt;/font&gt;" style="shape=rhombus;perimeter=rhombusPerimeter;whiteSpace=wrap;html=1;align=center;fontFamily=Architects Daughter;fontSource=https%3A%2F%2Ffonts.googleapis.com%2Fcss%3Ffamily%3DArchitects%2BDaughter;" parent="1" vertex="1">
          <mxGeometry x="3539" y="704" width="154" height="74" as="geometry" />
        </mxCell>
        <mxCell id="j6rW-VQLcNhl6mW4Knk0-2" value="&lt;font style=&quot;font-size: 40px;&quot;&gt;活动参与流程表&lt;/font&gt;" style="whiteSpace=wrap;html=1;align=center;fontFamily=Architects Daughter;fontSource=https%3A%2F%2Ffonts.googleapis.com%2Fcss%3Ffamily%3DArchitects%2BDaughter;" parent="1" vertex="1">
          <mxGeometry x="3536.5" y="878" width="171" height="117" as="geometry" />
        </mxCell>
        <mxCell id="j6rW-VQLcNhl6mW4Knk0-3" value="&lt;font style=&quot;font-size: 40px;&quot;&gt;参与&lt;/font&gt;" style="shape=rhombus;perimeter=rhombusPerimeter;whiteSpace=wrap;html=1;align=center;fontFamily=Architects Daughter;fontSource=https%3A%2F%2Ffonts.googleapis.com%2Fcss%3Ffamily%3DArchitects%2BDaughter;" parent="1" vertex="1">
          <mxGeometry x="3323" y="907.5" width="120" height="60" as="geometry" />
        </mxCell>
        <mxCell id="j6rW-VQLcNhl6mW4Knk0-4" value="" style="endArrow=none;html=1;rounded=0;entryX=0;entryY=0.5;entryDx=0;entryDy=0;exitX=1;exitY=0.5;exitDx=0;exitDy=0;" parent="1" source="g4wV-7bCnr3QMaH24BYD-16" target="j6rW-VQLcNhl6mW4Knk0-3" edge="1">
          <mxGeometry width="50" height="50" relative="1" as="geometry">
            <mxPoint x="3156" y="1041" as="sourcePoint" />
            <mxPoint x="3206" y="991" as="targetPoint" />
          </mxGeometry>
        </mxCell>
        <mxCell id="nn8bwB5qxwumT2WYkks2-4" value="&lt;font style=&quot;font-size: 50px;&quot;&gt;1&lt;/font&gt;" style="edgeLabel;html=1;align=center;verticalAlign=middle;resizable=0;points=[];" vertex="1" connectable="0" parent="j6rW-VQLcNhl6mW4Knk0-4">
          <mxGeometry x="0.0694" y="1" relative="1" as="geometry">
            <mxPoint as="offset" />
          </mxGeometry>
        </mxCell>
        <mxCell id="j6rW-VQLcNhl6mW4Knk0-5" value="" style="endArrow=none;html=1;rounded=0;entryX=0;entryY=0.5;entryDx=0;entryDy=0;exitX=1;exitY=0.5;exitDx=0;exitDy=0;" parent="1" source="j6rW-VQLcNhl6mW4Knk0-3" target="j6rW-VQLcNhl6mW4Knk0-2" edge="1">
          <mxGeometry width="50" height="50" relative="1" as="geometry">
            <mxPoint x="3351" y="1037" as="sourcePoint" />
            <mxPoint x="3401" y="987" as="targetPoint" />
          </mxGeometry>
        </mxCell>
        <mxCell id="nn8bwB5qxwumT2WYkks2-3" value="n" style="edgeLabel;html=1;align=center;verticalAlign=middle;resizable=0;points=[];fontSize=50;" vertex="1" connectable="0" parent="j6rW-VQLcNhl6mW4Knk0-5">
          <mxGeometry x="-0.0462" y="-2" relative="1" as="geometry">
            <mxPoint x="2" y="-6" as="offset" />
          </mxGeometry>
        </mxCell>
        <mxCell id="j6rW-VQLcNhl6mW4Knk0-6" value="" style="endArrow=none;html=1;rounded=0;entryX=0.5;entryY=1;entryDx=0;entryDy=0;exitX=0.5;exitY=0;exitDx=0;exitDy=0;" parent="1" source="j6rW-VQLcNhl6mW4Knk0-1" target="g4wV-7bCnr3QMaH24BYD-11" edge="1">
          <mxGeometry width="50" height="50" relative="1" as="geometry">
            <mxPoint x="3518" y="729" as="sourcePoint" />
            <mxPoint x="3568" y="679" as="targetPoint" />
          </mxGeometry>
        </mxCell>
        <mxCell id="j6rW-VQLcNhl6mW4Knk0-8" value="1" style="edgeLabel;html=1;align=center;verticalAlign=middle;resizable=0;points=[];fontSize=50;" parent="j6rW-VQLcNhl6mW4Knk0-6" vertex="1" connectable="0">
          <mxGeometry x="0.0196" y="1" relative="1" as="geometry">
            <mxPoint as="offset" />
          </mxGeometry>
        </mxCell>
        <mxCell id="j6rW-VQLcNhl6mW4Knk0-7" value="" style="endArrow=none;html=1;rounded=0;entryX=0.5;entryY=1;entryDx=0;entryDy=0;exitX=0.5;exitY=0;exitDx=0;exitDy=0;" parent="1" source="j6rW-VQLcNhl6mW4Knk0-2" target="j6rW-VQLcNhl6mW4Knk0-1" edge="1">
          <mxGeometry width="50" height="50" relative="1" as="geometry">
            <mxPoint x="3490" y="846" as="sourcePoint" />
            <mxPoint x="3540" y="796" as="targetPoint" />
          </mxGeometry>
        </mxCell>
        <mxCell id="j6rW-VQLcNhl6mW4Knk0-9" value="n" style="edgeLabel;html=1;align=center;verticalAlign=middle;resizable=0;points=[];fontSize=50;" parent="j6rW-VQLcNhl6mW4Knk0-7" vertex="1" connectable="0">
          <mxGeometry x="0.0712" relative="1" as="geometry">
            <mxPoint as="offset" />
          </mxGeometry>
        </mxCell>
        <mxCell id="j6rW-VQLcNhl6mW4Knk0-10" value="&lt;font style=&quot;font-size: 40px;&quot;&gt;参与方式表&lt;/font&gt;" style="whiteSpace=wrap;html=1;align=center;fontFamily=Architects Daughter;fontSource=https%3A%2F%2Ffonts.googleapis.com%2Fcss%3Ffamily%3DArchitects%2BDaughter;" parent="1" vertex="1">
          <mxGeometry x="3899.5" y="686" width="175" height="101" as="geometry" />
        </mxCell>
        <mxCell id="j6rW-VQLcNhl6mW4Knk0-11" value="&lt;font style=&quot;font-size: 40px;&quot;&gt;对应&lt;/font&gt;" style="shape=rhombus;perimeter=rhombusPerimeter;whiteSpace=wrap;html=1;align=center;fontFamily=Architects Daughter;fontSource=https%3A%2F%2Ffonts.googleapis.com%2Fcss%3Ffamily%3DArchitects%2BDaughter;" parent="1" vertex="1">
          <mxGeometry x="3927" y="907.5" width="120" height="60" as="geometry" />
        </mxCell>
        <mxCell id="j6rW-VQLcNhl6mW4Knk0-12" value="" style="endArrow=none;html=1;rounded=0;entryX=0;entryY=0.5;entryDx=0;entryDy=0;exitX=1;exitY=0.5;exitDx=0;exitDy=0;" parent="1" source="j6rW-VQLcNhl6mW4Knk0-2" target="j6rW-VQLcNhl6mW4Knk0-11" edge="1">
          <mxGeometry width="50" height="50" relative="1" as="geometry">
            <mxPoint x="3497" y="999" as="sourcePoint" />
            <mxPoint x="3547" y="949" as="targetPoint" />
          </mxGeometry>
        </mxCell>
        <mxCell id="j6rW-VQLcNhl6mW4Knk0-13" value="n" style="edgeLabel;html=1;align=center;verticalAlign=middle;resizable=0;points=[];fontSize=50;" parent="j6rW-VQLcNhl6mW4Knk0-12" vertex="1" connectable="0">
          <mxGeometry x="0.0554" y="1" relative="1" as="geometry">
            <mxPoint as="offset" />
          </mxGeometry>
        </mxCell>
        <mxCell id="j6rW-VQLcNhl6mW4Knk0-14" value="" style="endArrow=none;html=1;rounded=0;entryX=0.5;entryY=1;entryDx=0;entryDy=0;" parent="1" source="j6rW-VQLcNhl6mW4Knk0-11" target="j6rW-VQLcNhl6mW4Knk0-10" edge="1">
          <mxGeometry width="50" height="50" relative="1" as="geometry">
            <mxPoint x="3565" y="996" as="sourcePoint" />
            <mxPoint x="3615" y="946" as="targetPoint" />
          </mxGeometry>
        </mxCell>
        <mxCell id="j6rW-VQLcNhl6mW4Knk0-15" value="n" style="edgeLabel;html=1;align=center;verticalAlign=middle;resizable=0;points=[];fontSize=50;" parent="j6rW-VQLcNhl6mW4Knk0-14" vertex="1" connectable="0">
          <mxGeometry x="-0.0159" y="1" relative="1" as="geometry">
            <mxPoint as="offset" />
          </mxGeometry>
        </mxCell>
      </root>
    </mxGraphModel>
  </diagram>
</mxfile>
